<svg width="27" height="18" fill="none" xmlns="http://www.w3.org/2000/svg"><path fill-rule="evenodd" clip-rule="evenodd" d="M17.316 1.468H4A2.532 2.532 0 0 0 1.468 4v10A2.532 2.532 0 0 0 4 16.532h13.316A2.532 2.532 0 0 0 19.848 14V4a2.532 2.532 0 0 0-2.532-2.532zM4 0a4 4 0 0 0-4 4v10a4 4 0 0 0 4 4h13.316a4 4 0 0 0 4-4V4a4 4 0 0 0-4-4H4z" fill="#fff"/><path fill-rule="evenodd" clip-rule="evenodd" d="M21.362 6.542v6.3l4.17 1.626V4.916l-4.17 1.626zm-1.467 7.304l5.104 1.99c.963.375 2-.335 2-1.368V4.916a1.468 1.468 0 0 0-2-1.367l-5.104 1.99v8.307zM7.816 10.995c1.188 0 2.085-.929 2.085-1.994 0-1.066-.897-1.994-2.085-1.994-1.187 0-2.085.928-2.085 1.994 0 1.065.898 1.994 2.085 1.994zm0 1.467c1.962 0 3.553-1.55 3.553-3.461 0-1.912-1.59-3.462-3.553-3.462-1.962 0-3.552 1.55-3.552 3.462 0 1.911 1.59 3.461 3.552 3.461z" fill="#fff"/><path fill-rule="evenodd" clip-rule="evenodd" d="M13.5 10.994c1.188 0 2.085-.928 2.085-1.994 0-1.065-.897-1.994-2.085-1.994S11.415 7.935 11.415 9c0 1.066.897 1.994 2.085 1.994zm0 1.468c1.962 0 3.552-1.55 3.552-3.462 0-1.912-1.59-3.461-3.552-3.461S9.947 7.089 9.947 9c0 1.912 1.59 3.462 3.553 3.462z" fill="#fff"/></svg>