<svg width="108" height="80" viewBox="0 0 108 80" fill="none" xmlns="http://www.w3.org/2000/svg">
<path d="M78.784 0.732329C79.2529 0.263427 79.8889 -1.63864e-08 80.552 0C81.2151 1.63864e-08 81.8511 0.263427 82.32 0.73233C82.7889 1.20123 83.0523 1.8372 83.0523 2.50033C83.0523 3.16346 82.7889 3.79943 82.32 4.26833L8.076 78.5123C7.6071 78.9812 6.97113 79.2447 6.308 79.2447C5.64487 79.2447 5.0089 78.9812 4.54 78.5123C4.0711 78.0434 3.80767 77.4075 3.80767 76.7443C3.80767 76.0812 4.0711 75.4452 4.54 74.9763L78.784 0.732329ZM5 56.5973C5 57.2604 4.73661 57.8963 4.26777 58.3651C3.79893 58.8339 3.16304 59.0973 2.5 59.0973C1.83696 59.0973 1.20107 58.8339 0.732233 58.3651C0.263392 57.8963 0 57.2604 0 56.5973V13.0503C0 7.25033 4.701 2.55033 10.5 2.55033H58.044C58.707 2.55033 59.3429 2.81372 59.8118 3.28256C60.2806 3.7514 60.544 4.38729 60.544 5.05033C60.544 5.71337 60.2806 6.34926 59.8118 6.8181C59.3429 7.28694 58.707 7.55033 58.044 7.55033H10.5C9.04131 7.55033 7.64236 8.12979 6.61091 9.16124C5.57946 10.1927 5 11.5916 5 13.0503V56.5963V56.5973ZM79.596 20.5003C79.596 19.8373 79.8594 19.2014 80.3282 18.7326C80.7971 18.2637 81.433 18.0003 82.096 18.0003C82.759 18.0003 83.3949 18.2637 83.8638 18.7326C84.3326 19.2014 84.596 19.8373 84.596 20.5003V68.0463C84.596 73.8453 79.895 78.5463 74.096 78.5463H26.552C25.889 78.5463 25.2531 78.2829 24.7842 77.8141C24.3154 77.3453 24.052 76.7094 24.052 76.0463C24.052 75.3833 24.3154 74.7474 24.7842 74.2786C25.2531 73.8097 25.889 73.5463 26.552 73.5463H74.096C75.5547 73.5463 76.9536 72.9669 77.9851 71.9354C79.0165 70.904 79.596 69.505 79.596 68.0463V20.5003Z" fill="white"/>
<path d="M102.776 20.7602L83.8111 31.3552C83.5244 31.5153 83.209 31.6174 82.8829 31.6556C82.5568 31.6938 82.2263 31.6673 81.9104 31.5778C81.2724 31.397 80.7324 30.9702 80.4091 30.3912C80.0858 29.8123 80.0057 29.1286 80.1865 28.4906C80.3673 27.8526 80.7941 27.3125 81.3731 26.9892L104.057 14.3172C105.723 13.3872 107.776 14.5912 107.776 16.5002V64.1882C107.776 66.0972 105.723 67.3022 104.056 66.3702L81.3341 53.6742C80.7704 53.3432 80.3589 52.8045 80.1876 52.1737C80.0163 51.5428 80.0989 50.87 80.4177 50.2993C80.7365 49.7286 81.2662 49.3055 81.8932 49.1206C82.5202 48.9358 83.1947 49.0038 83.7721 49.3102L102.777 59.9282V20.7602H102.776Z" fill="white"/>
</svg>
