<svg width="20" height="20" fill="none" xmlns="http://www.w3.org/2000/svg"><path d="M3.684 3.173C5.377 1.772 7.62 1 10 1s4.623.772 6.316 2.173C18.046 4.605 19 6.522 19 8.569c0 2.047-.953 3.963-2.684 5.395-1.692 1.402-3.936 2.173-6.316 2.173-.242 0-.487-.008-.73-.024L7.738 18.7a.606.606 0 0 1-.506.3h-.014a.605.605 0 0 1-.505-.275l-3.246-4.946C1.875 12.368 1 10.523 1 8.569c0-2.047.953-3.964 2.684-5.396zm.677 9.75l2.83 4.298 1.235-2.083a.605.605 0 0 1 .581-.297c.329.034.663.051.993.051 4.292 0 7.784-2.836 7.784-6.323 0-3.487-3.492-6.324-7.784-6.324S2.216 5.082 2.216 8.569c0 1.625.762 3.17 2.145 4.353z" fill="#fff"/><path fill-rule="evenodd" clip-rule="evenodd" d="M16.412 3.058C14.69 1.632 12.412.85 10 .85s-4.69.782-6.412 2.207C1.828 4.515.85 6.472.85 8.57c0 1.995.891 3.874 2.503 5.309l3.235 4.93c.14.213.376.342.63.342h.017a.757.757 0 0 0 .632-.373l1.486-2.509c.216.013.432.02.647.02 2.412 0 4.69-.782 6.412-2.208 1.762-1.458 2.738-3.415 2.738-5.511 0-2.097-.976-4.054-2.738-5.511zM10 1.15c2.349 0 4.557.762 6.221 2.139 1.7 1.407 2.63 3.282 2.63 5.28 0 1.997-.93 3.873-2.63 5.28-1.664 1.377-3.872 2.139-6.22 2.139-.24 0-.48-.008-.72-.025l-.092-.006-1.58 2.667a.456.456 0 0 1-.38.226m0 0h-.011a.455.455 0 0 1-.38-.208L3.583 13.68l-.015-.014C2.004 12.281 1.15 10.476 1.15 8.57c0-1.998.93-3.873 2.63-5.28C5.443 1.912 7.652 1.15 10 1.15m0 1.245c4.24 0 7.634 2.797 7.634 6.174 0 3.376-3.394 6.173-7.633 6.173-.326 0-.655-.016-.978-.05a.755.755 0 0 0-.726.37l-1.112 1.876-2.71-4.116-.016-.014c-1.354-1.157-2.092-2.663-2.092-4.24 0-3.376 3.394-6.173 7.634-6.173zm7.934 6.174c0-3.598-3.59-6.474-7.934-6.474S2.068 4.97 2.068 8.569c0 1.668.779 3.248 2.18 4.453l2.951 4.482 1.357-2.29a.455.455 0 0 1 .438-.223c.333.034.672.052 1.008.052 4.344 0 7.933-2.877 7.933-6.474z" fill="#fff"/></svg>