<svg width="96" height="20" viewBox="0 0 96 20" fill="none" xmlns="http://www.w3.org/2000/svg">
<path d="M33.736 13C33.5773 13 33.4607 12.9627 33.386 12.888C33.3113 12.8133 33.274 12.6967 33.274 12.538V3.662C33.274 3.50333 33.3113 3.38667 33.386 3.312C33.4607 3.23733 33.5773 3.2 33.736 3.2H36.606C37.95 3.2 39.014 3.60133 39.798 4.404C40.582 5.19733 40.974 6.42933 40.974 8.1C40.974 9.77067 40.582 11.0073 39.798 11.81C39.014 12.6033 37.95 13 36.606 13H33.736ZM36.536 11.712C37.4227 11.712 38.1273 11.418 38.65 10.83C39.1727 10.2327 39.434 9.32267 39.434 8.1C39.434 6.87733 39.1727 5.972 38.65 5.384C38.1273 4.78667 37.4227 4.488 36.536 4.488H34.772V11.712H36.536ZM45.7384 13.098C44.665 13.098 43.8484 12.7807 43.2884 12.146C42.7284 11.502 42.4484 10.5733 42.4484 9.36C42.4484 8.14667 42.733 7.21333 43.3024 6.56C43.8717 5.90667 44.6837 5.58 45.7384 5.58C46.793 5.58 47.5957 5.90667 48.1464 6.56C48.7064 7.204 48.9864 8.13733 48.9864 9.36C48.9864 10.5733 48.711 11.502 48.1604 12.146C47.6097 12.7807 46.8024 13.098 45.7384 13.098ZM45.7104 11.908C46.3264 11.908 46.779 11.698 47.0684 11.278C47.367 10.858 47.5164 10.214 47.5164 9.346C47.5164 8.478 47.367 7.834 47.0684 7.414C46.779 6.98467 46.3264 6.77 45.7104 6.77C45.1037 6.77 44.6557 6.98467 44.3664 7.414C44.077 7.834 43.9324 8.478 43.9324 9.346C43.9324 10.214 44.0724 10.858 44.3524 11.278C44.6417 11.698 45.0944 11.908 45.7104 11.908ZM52.5751 13.028C52.2017 13.028 51.9964 12.9487 51.9591 12.79L50.1391 6.182C50.1017 6.07 50.0831 5.986 50.0831 5.93C50.0831 5.74333 50.3164 5.65 50.7831 5.65C51.2217 5.65 51.4597 5.72933 51.4971 5.888L52.6031 10.144C52.6404 10.256 52.6824 10.4707 52.7291 10.788L52.8691 11.558H52.9251C52.9344 11.502 52.9577 11.3853 52.9951 11.208C53.1071 10.6107 53.1771 10.2513 53.2051 10.13L54.2971 5.902C54.3344 5.734 54.5351 5.65 54.8991 5.65H55.0671C55.4404 5.65 55.6457 5.734 55.6831 5.902L56.7751 10.144C56.8777 10.564 56.9524 10.942 56.9991 11.278C57.0177 11.3527 57.0364 11.4553 57.0551 11.586H57.0831C57.1111 11.4647 57.1531 11.2453 57.2091 10.928C57.2277 10.844 57.2511 10.718 57.2791 10.55C57.3071 10.3727 57.3351 10.242 57.3631 10.158L58.4551 5.888C58.4924 5.72933 58.7071 5.65 59.0991 5.65C59.5377 5.65 59.7571 5.74333 59.7571 5.93C59.7571 5.97667 59.7431 6.042 59.7151 6.126L57.9091 12.79C57.8904 12.874 57.8204 12.9347 57.6991 12.972C57.5871 13.0093 57.4471 13.028 57.2791 13.028H56.7891C56.4157 13.028 56.2104 12.9487 56.1731 12.79L55.1371 8.66C55.1091 8.56667 55.0624 8.31933 54.9971 7.918L54.9551 7.61H54.9131C54.8944 7.75933 54.8757 7.87133 54.8571 7.946C54.8291 8.26333 54.7917 8.50133 54.7451 8.66L53.6951 12.79C53.6764 12.874 53.6111 12.9347 53.4991 12.972C53.3871 13.0093 53.2471 13.028 53.0791 13.028H52.5751ZM61.9141 13.028C61.4847 13.028 61.2701 12.9113 61.2701 12.678V7.904C61.2701 7.288 61.2421 6.84 61.1861 6.56C61.1301 6.28 61.1021 6.12133 61.1021 6.084C61.1021 5.95333 61.2187 5.86 61.4521 5.804C61.6854 5.748 61.9001 5.72 62.0961 5.72C62.2361 5.72 62.3341 5.78533 62.3901 5.916C62.4554 6.04667 62.5021 6.18667 62.5301 6.336C62.5674 6.48533 62.5907 6.588 62.6001 6.644C62.8801 6.31733 63.2114 6.06067 63.5941 5.874C63.9767 5.678 64.3641 5.58 64.7561 5.58C65.4654 5.58 66.0114 5.78067 66.3941 6.182C66.7861 6.574 66.9821 7.12933 66.9821 7.848V12.678C66.9821 12.9113 66.7674 13.028 66.3381 13.028H66.1841C65.7547 13.028 65.5401 12.9113 65.5401 12.678V8.016C65.5401 7.63333 65.4327 7.33933 65.2181 7.134C65.0034 6.91933 64.6907 6.812 64.2801 6.812C63.9814 6.812 63.6921 6.90067 63.4121 7.078C63.1321 7.246 62.8987 7.46533 62.7121 7.736V12.678C62.7121 12.9113 62.4974 13.028 62.0681 13.028H61.9141ZM70.897 13.098C70.3837 13.098 69.945 12.944 69.581 12.636C69.217 12.3187 69.035 11.796 69.035 11.068V2.808C69.035 2.57467 69.245 2.458 69.665 2.458H69.819C70.2484 2.458 70.463 2.57467 70.463 2.808V10.998C70.463 11.334 70.5237 11.572 70.645 11.712C70.7664 11.8427 70.9344 11.908 71.149 11.908C71.2797 11.908 71.387 11.8987 71.471 11.88C71.5644 11.852 71.6344 11.838 71.681 11.838C71.7744 11.838 71.8537 11.9407 71.919 12.146C71.9844 12.342 72.017 12.4913 72.017 12.594C72.017 12.93 71.6437 13.098 70.897 13.098ZM76.1173 13.098C75.0439 13.098 74.2273 12.7807 73.6673 12.146C73.1073 11.502 72.8273 10.5733 72.8273 9.36C72.8273 8.14667 73.1119 7.21333 73.6813 6.56C74.2506 5.90667 75.0626 5.58 76.1173 5.58C77.1719 5.58 77.9746 5.90667 78.5253 6.56C79.0853 7.204 79.3653 8.13733 79.3653 9.36C79.3653 10.5733 79.0899 11.502 78.5393 12.146C77.9886 12.7807 77.1813 13.098 76.1173 13.098ZM76.0893 11.908C76.7053 11.908 77.1579 11.698 77.4473 11.278C77.7459 10.858 77.8953 10.214 77.8953 9.346C77.8953 8.478 77.7459 7.834 77.4473 7.414C77.1579 6.98467 76.7053 6.77 76.0893 6.77C75.4826 6.77 75.0346 6.98467 74.7453 7.414C74.4559 7.834 74.3113 8.478 74.3113 9.346C74.3113 10.214 74.4513 10.858 74.7313 11.278C75.0206 11.698 75.4733 11.908 76.0893 11.908ZM83.038 13.098C82.3287 13.098 81.7687 12.9207 81.358 12.566C80.9473 12.202 80.742 11.684 80.742 11.012C80.742 10.0693 81.134 9.41133 81.918 9.038C82.702 8.65533 83.7987 8.45933 85.208 8.45V7.848C85.208 7.52133 85.096 7.26 84.872 7.064C84.648 6.868 84.2887 6.77 83.794 6.77C83.4113 6.77 83.0753 6.81667 82.786 6.91C82.506 6.994 82.2633 7.08733 82.058 7.19C81.862 7.28333 81.75 7.33 81.722 7.33C81.6193 7.33 81.498 7.22267 81.358 7.008C81.2273 6.784 81.162 6.616 81.162 6.504C81.162 6.37333 81.2833 6.238 81.526 6.098C81.778 5.94867 82.1047 5.82733 82.506 5.734C82.9167 5.63133 83.3507 5.58 83.808 5.58C84.732 5.58 85.432 5.78067 85.908 6.182C86.3933 6.574 86.636 7.12 86.636 7.82V10.816C86.636 11.4413 86.664 11.894 86.72 12.174C86.776 12.454 86.804 12.6127 86.804 12.65C86.804 12.7807 86.6873 12.874 86.454 12.93C86.23 12.986 86.02 13.014 85.824 13.014C85.6747 13.014 85.5673 12.944 85.502 12.804C85.446 12.664 85.3993 12.5147 85.362 12.356C85.334 12.1973 85.3153 12.09 85.306 12.034C85.054 12.3327 84.7367 12.5847 84.354 12.79C83.9807 12.9953 83.542 13.098 83.038 13.098ZM83.276 11.894C83.6867 11.894 84.046 11.81 84.354 11.642C84.662 11.474 84.9467 11.2453 85.208 10.956V9.556C84.3027 9.556 83.5793 9.64467 83.038 9.822C82.4967 9.99 82.226 10.3493 82.226 10.9C82.226 11.2173 82.3147 11.4647 82.492 11.642C82.6787 11.81 82.94 11.894 83.276 11.894ZM91.0869 13.098C90.5549 13.098 90.0836 12.944 89.6729 12.636C89.2716 12.3187 88.9589 11.8753 88.7349 11.306C88.5109 10.7367 88.3989 10.0833 88.3989 9.346C88.3989 8.562 88.5156 7.89 88.7489 7.33C88.9916 6.76067 89.3276 6.32667 89.7569 6.028C90.1862 5.72933 90.6902 5.58 91.2689 5.58C91.6422 5.58 91.9736 5.636 92.2629 5.748C92.5616 5.86 92.8462 6.01867 93.1169 6.224V2.808C93.1169 2.57467 93.3269 2.458 93.7469 2.458H93.9009C94.3302 2.458 94.5449 2.57467 94.5449 2.808V10.816C94.5449 11.4413 94.5729 11.894 94.6289 12.174C94.6849 12.454 94.7129 12.6127 94.7129 12.65C94.7129 12.7807 94.5962 12.874 94.3629 12.93C94.1296 12.986 93.9149 13.014 93.7189 13.014C93.5789 13.014 93.4762 12.944 93.4109 12.804C93.3549 12.664 93.3082 12.5193 93.2709 12.37C93.2429 12.2113 93.2242 12.104 93.2149 12.048C92.5989 12.748 91.8896 13.098 91.0869 13.098ZM91.4369 11.88C91.7262 11.88 92.0156 11.8007 92.3049 11.642C92.5942 11.474 92.8649 11.2453 93.1169 10.956V7.316C92.6689 6.97067 92.1649 6.798 91.6049 6.798C91.0356 6.798 90.6062 7.008 90.3169 7.428C90.0276 7.848 89.8829 8.45933 89.8829 9.262C89.8829 10.102 90.0136 10.7507 90.2749 11.208C90.5456 11.656 90.9329 11.88 91.4369 11.88Z" fill="white"/>
<path d="M17.2234 12.7461V17.3148H2.77665V12.7461H0V18.6578C0 19.399 0.620711 20.0001 1.39039 20.0001H18.6096C19.3786 20.0001 20 19.3996 20 18.6578V12.7461H17.2234Z" fill="white"/>
<path d="M9.74537 12.293L5.77006 7.64627C5.77006 7.64627 5.16521 7.09387 5.8211 7.09387C6.47698 7.09387 8.06117 7.09387 8.06117 7.09387C8.06117 7.09387 8.06117 6.72226 8.06117 6.14918C8.06117 4.51531 8.06117 1.5418 8.06117 0.329575C8.06117 0.329575 7.97221 0 8.48533 0C9.00259 0 11.2682 0 11.6385 0C12.0082 0 11.9999 0.277537 11.9999 0.277537C11.9999 1.45307 11.9999 4.52932 11.9999 6.10981C11.9999 6.62219 11.9999 6.95443 11.9999 6.95443C11.9999 6.95443 13.2703 6.95443 14.0676 6.95443C14.8635 6.95443 14.2641 7.53286 14.2641 7.53286C14.2641 7.53286 10.882 11.876 10.4102 12.3317C10.0709 12.662 9.74537 12.293 9.74537 12.293Z" fill="white"/>
</svg>
