<svg width="106" height="20" viewBox="0 0 106 20" fill="none" xmlns="http://www.w3.org/2000/svg">
<path d="M33.764 13.0279C33.3347 13.0279 33.12 12.9113 33.12 12.6779V3.66194C33.12 3.50327 33.1573 3.38661 33.232 3.31194C33.3067 3.23727 33.4233 3.19994 33.582 3.19994H36.452C37.292 3.19994 38.034 3.40061 38.678 3.80194C39.322 4.20327 39.644 4.94994 39.644 6.04194C39.644 6.82594 39.4573 7.43727 39.084 7.87594C38.72 8.30527 38.3047 8.59461 37.838 8.74394C37.3807 8.89327 36.9653 8.96794 36.592 8.96794H34.618V12.6779C34.618 12.9113 34.408 13.0279 33.988 13.0279H33.764ZM36.536 7.67994C36.9187 7.67994 37.2733 7.55861 37.6 7.31594C37.9267 7.07327 38.09 6.64861 38.09 6.04194C38.09 5.46327 37.922 5.06194 37.586 4.83794C37.2593 4.60461 36.8627 4.48794 36.396 4.48794H34.618V7.67994H36.536ZM42.9384 13.0979C42.229 13.0979 41.669 12.9206 41.2584 12.5659C40.8477 12.2019 40.6424 11.6839 40.6424 11.0119C40.6424 10.0693 41.0344 9.41127 41.8184 9.03794C42.6024 8.65527 43.699 8.45927 45.1084 8.44994V7.84794C45.1084 7.52127 44.9964 7.25994 44.7724 7.06394C44.5484 6.86794 44.189 6.76994 43.6944 6.76994C43.3117 6.76994 42.9757 6.81661 42.6864 6.90994C42.4064 6.99394 42.1637 7.08727 41.9584 7.18994C41.7624 7.28327 41.6504 7.32994 41.6224 7.32994C41.5197 7.32994 41.3984 7.22261 41.2584 7.00794C41.1277 6.78394 41.0624 6.61594 41.0624 6.50394C41.0624 6.37327 41.1837 6.23794 41.4264 6.09794C41.6784 5.94861 42.005 5.82727 42.4064 5.73394C42.817 5.63127 43.251 5.57994 43.7084 5.57994C44.6324 5.57994 45.3324 5.78061 45.8084 6.18194C46.2937 6.57394 46.5364 7.11994 46.5364 7.81994V10.8159C46.5364 11.4413 46.5644 11.8939 46.6204 12.1739C46.6764 12.4539 46.7044 12.6126 46.7044 12.6499C46.7044 12.7806 46.5877 12.8739 46.3544 12.9299C46.1304 12.9859 45.9204 13.0139 45.7244 13.0139C45.575 13.0139 45.4677 12.9439 45.4024 12.8039C45.3464 12.6639 45.2997 12.5146 45.2624 12.3559C45.2344 12.1973 45.2157 12.0899 45.2064 12.0339C44.9544 12.3326 44.637 12.5846 44.2544 12.7899C43.881 12.9953 43.4424 13.0979 42.9384 13.0979ZM43.1764 11.8939C43.587 11.8939 43.9464 11.8099 44.2544 11.6419C44.5624 11.4739 44.847 11.2453 45.1084 10.9559V9.55594C44.203 9.55594 43.4797 9.64461 42.9384 9.82194C42.397 9.98994 42.1264 10.3493 42.1264 10.8999C42.1264 11.2173 42.215 11.4646 42.3924 11.6419C42.579 11.8099 42.8404 11.8939 43.1764 11.8939ZM49.4053 13.0279C48.9759 13.0279 48.7613 12.9113 48.7613 12.6779V7.90394C48.7613 7.28794 48.7333 6.83994 48.6773 6.55994C48.6213 6.27994 48.5933 6.12127 48.5933 6.08394C48.5933 5.95327 48.7099 5.85994 48.9433 5.80394C49.1766 5.74794 49.3913 5.71994 49.5873 5.71994C49.7273 5.71994 49.8253 5.78527 49.8813 5.91594C49.9466 6.04661 49.9933 6.18661 50.0213 6.33594C50.0586 6.48527 50.0819 6.58794 50.0913 6.64394C50.5673 5.93461 51.0993 5.57994 51.6873 5.57994C51.9579 5.57994 52.1586 5.64061 52.2893 5.76194C52.4293 5.88327 52.4993 6.02794 52.4993 6.19594C52.4993 6.36394 52.4666 6.55061 52.4013 6.75594C52.3359 6.96127 52.2613 7.06394 52.1773 7.06394C52.1213 7.06394 52.0233 7.04061 51.8833 6.99394C51.7526 6.94727 51.6033 6.92394 51.4353 6.92394C51.1459 6.92394 50.8893 7.02194 50.6653 7.21794C50.4506 7.40461 50.2919 7.57727 50.1893 7.73594V12.6779C50.1893 12.9113 49.9793 13.0279 49.5593 13.0279H49.4053ZM55.9882 13.0979C55.4749 13.0979 55.0316 12.9439 54.6582 12.6359C54.2942 12.3186 54.1122 11.7959 54.1122 11.0679V6.86794H53.5522C53.4402 6.86794 53.3562 6.83061 53.3002 6.75594C53.2536 6.67194 53.2302 6.54127 53.2302 6.36394V6.18194C53.2302 6.00461 53.2536 5.87861 53.3002 5.80394C53.3562 5.71994 53.4402 5.67794 53.5522 5.67794H54.1122L54.2942 4.24994C54.3222 4.01661 54.4996 3.89994 54.8262 3.89994H55.0502C55.3862 3.89994 55.5542 4.01661 55.5542 4.24994V5.67794H56.5902C56.7022 5.67794 56.7816 5.71994 56.8282 5.80394C56.8842 5.87861 56.9122 6.00461 56.9122 6.18194V6.36394C56.9122 6.54127 56.8842 6.67194 56.8282 6.75594C56.7816 6.83061 56.7022 6.86794 56.5902 6.86794H55.5542V10.9979C55.5542 11.3339 55.6102 11.5719 55.7222 11.7119C55.8436 11.8426 56.0162 11.9079 56.2402 11.9079C56.3709 11.9079 56.4782 11.8986 56.5622 11.8799C56.6556 11.8519 56.7256 11.8379 56.7722 11.8379C56.8656 11.8379 56.9449 11.9406 57.0102 12.1459C57.0756 12.3419 57.1082 12.4913 57.1082 12.5939C57.1082 12.9299 56.7349 13.0979 55.9882 13.0979ZM59.3734 4.47394C58.8881 4.47394 58.6454 4.34327 58.6454 4.08194V3.25594C58.6454 2.99461 58.8974 2.86394 59.4014 2.86394C59.8867 2.86394 60.1294 2.99461 60.1294 3.25594V4.08194C60.1294 4.34327 59.8774 4.47394 59.3734 4.47394ZM59.3174 13.0279C58.8881 13.0279 58.6734 12.9113 58.6734 12.6779V5.99994C58.6734 5.76661 58.8881 5.64994 59.3174 5.64994H59.4574C59.8867 5.64994 60.1014 5.76661 60.1014 5.99994V12.6779C60.1014 12.9113 59.8867 13.0279 59.4574 13.0279H59.3174ZM65.3885 13.0979C64.2125 13.0979 63.3398 12.7993 62.7705 12.2019C62.2011 11.5953 61.9165 10.6386 61.9165 9.33194C61.9165 8.01594 62.2245 7.06394 62.8405 6.47594C63.4658 5.87861 64.2918 5.57994 65.3185 5.57994C65.8598 5.57994 66.3545 5.65461 66.8025 5.80394C67.2598 5.94394 67.4885 6.11661 67.4885 6.32194C67.4885 6.45261 67.4231 6.62994 67.2925 6.85394C67.1618 7.06861 67.0451 7.17594 66.9425 7.17594C66.9331 7.17594 66.8725 7.15261 66.7605 7.10594C66.5458 7.01261 66.3265 6.93327 66.1025 6.86794C65.8878 6.80261 65.6311 6.76994 65.3325 6.76994C64.7071 6.76994 64.2311 6.97527 63.9045 7.38594C63.5871 7.78727 63.4285 8.42194 63.4285 9.28994C63.4285 10.2046 63.5778 10.8719 63.8765 11.2919C64.1845 11.7026 64.6931 11.9079 65.4025 11.9079C65.7291 11.9079 66.0091 11.8753 66.2425 11.8099C66.4851 11.7353 66.7138 11.6466 66.9285 11.5439C67.0405 11.5066 67.1011 11.4879 67.1105 11.4879C67.2131 11.4879 67.3298 11.5953 67.4605 11.8099C67.5911 12.0153 67.6565 12.1786 67.6565 12.2999C67.6565 12.5146 67.4091 12.7013 66.9145 12.8599C66.4291 13.0186 65.9205 13.0979 65.3885 13.0979ZM69.8734 4.47394C69.3881 4.47394 69.1454 4.34327 69.1454 4.08194V3.25594C69.1454 2.99461 69.3974 2.86394 69.9014 2.86394C70.3867 2.86394 70.6294 2.99461 70.6294 3.25594V4.08194C70.6294 4.34327 70.3774 4.47394 69.8734 4.47394ZM69.8174 13.0279C69.3881 13.0279 69.1734 12.9113 69.1734 12.6779V5.99994C69.1734 5.76661 69.3881 5.64994 69.8174 5.64994H69.9574C70.3867 5.64994 70.6014 5.76661 70.6014 5.99994V12.6779C70.6014 12.9113 70.3867 13.0279 69.9574 13.0279H69.8174ZM73.5085 15.8979C73.0791 15.8979 72.8645 15.7859 72.8645 15.5619V7.90394C72.8645 7.28794 72.8365 6.83994 72.7805 6.55994C72.7245 6.27994 72.6965 6.12127 72.6965 6.08394C72.6965 5.95327 72.8131 5.85994 73.0465 5.80394C73.2798 5.74794 73.4945 5.71994 73.6905 5.71994C73.8305 5.71994 73.9331 5.78994 73.9985 5.92994C74.0638 6.06061 74.1105 6.20061 74.1385 6.34994C74.1758 6.48994 74.1991 6.58327 74.2085 6.62994C74.4978 6.29394 74.8198 6.03727 75.1745 5.85994C75.5385 5.67327 75.9211 5.57994 76.3225 5.57994C76.8731 5.57994 77.3491 5.73861 77.7505 6.05594C78.1611 6.36394 78.4738 6.80261 78.6885 7.37194C78.9031 7.94127 79.0105 8.59927 79.0105 9.34594C79.0105 10.5219 78.7491 11.4413 78.2265 12.1039C77.7131 12.7666 77.0178 13.0979 76.1405 13.0979C75.7671 13.0979 75.4358 13.0419 75.1465 12.9299C74.8571 12.8179 74.5771 12.6593 74.3065 12.4539V15.5619C74.3065 15.7859 74.0918 15.8979 73.6625 15.8979H73.5085ZM75.8185 11.8799C76.3878 11.8799 76.8125 11.6699 77.0925 11.2499C77.3818 10.8299 77.5265 10.2186 77.5265 9.41594C77.5265 8.57594 77.3958 7.93194 77.1345 7.48394C76.8731 7.02661 76.4905 6.79794 75.9865 6.79794C75.6878 6.79794 75.3938 6.88194 75.1045 7.04994C74.8151 7.20861 74.5491 7.43261 74.3065 7.72194V11.3619C74.7358 11.7073 75.2398 11.8799 75.8185 11.8799ZM82.7099 13.0979C82.0005 13.0979 81.4405 12.9206 81.0299 12.5659C80.6192 12.2019 80.4139 11.6839 80.4139 11.0119C80.4139 10.0693 80.8059 9.41127 81.5899 9.03794C82.3739 8.65527 83.4705 8.45927 84.8799 8.44994V7.84794C84.8799 7.52127 84.7679 7.25994 84.5439 7.06394C84.3199 6.86794 83.9605 6.76994 83.4659 6.76994C83.0832 6.76994 82.7472 6.81661 82.4579 6.90994C82.1779 6.99394 81.9352 7.08727 81.7299 7.18994C81.5339 7.28327 81.4219 7.32994 81.3939 7.32994C81.2912 7.32994 81.1699 7.22261 81.0299 7.00794C80.8992 6.78394 80.8339 6.61594 80.8339 6.50394C80.8339 6.37327 80.9552 6.23794 81.1979 6.09794C81.4499 5.94861 81.7765 5.82727 82.1779 5.73394C82.5885 5.63127 83.0225 5.57994 83.4799 5.57994C84.4039 5.57994 85.1039 5.78061 85.5799 6.18194C86.0652 6.57394 86.3079 7.11994 86.3079 7.81994V10.8159C86.3079 11.4413 86.3359 11.8939 86.3919 12.1739C86.4479 12.4539 86.4759 12.6126 86.4759 12.6499C86.4759 12.7806 86.3592 12.8739 86.1259 12.9299C85.9019 12.9859 85.6919 13.0139 85.4959 13.0139C85.3465 13.0139 85.2392 12.9439 85.1739 12.8039C85.1179 12.6639 85.0712 12.5146 85.0339 12.3559C85.0059 12.1973 84.9872 12.0899 84.9779 12.0339C84.7259 12.3326 84.4085 12.5846 84.0259 12.7899C83.6525 12.9953 83.2139 13.0979 82.7099 13.0979ZM82.9479 11.8939C83.3585 11.8939 83.7179 11.8099 84.0259 11.6419C84.3339 11.4739 84.6185 11.2453 84.8799 10.9559V9.55594C83.9745 9.55594 83.2512 9.64461 82.7099 9.82194C82.1685 9.98994 81.8979 10.3493 81.8979 10.8999C81.8979 11.2173 81.9865 11.4646 82.1639 11.6419C82.3505 11.8099 82.6119 11.8939 82.9479 11.8939ZM89.1348 13.0279C88.7054 13.0279 88.4908 12.9113 88.4908 12.6779V7.90394C88.4908 7.28794 88.4628 6.83994 88.4068 6.55994C88.3508 6.27994 88.3228 6.12127 88.3228 6.08394C88.3228 5.95327 88.4394 5.85994 88.6728 5.80394C88.9061 5.74794 89.1208 5.71994 89.3168 5.71994C89.4568 5.71994 89.5548 5.78527 89.6108 5.91594C89.6761 6.04661 89.7228 6.18661 89.7508 6.33594C89.7881 6.48527 89.8114 6.58794 89.8208 6.64394C90.1008 6.31727 90.4321 6.06061 90.8148 5.87394C91.1974 5.67794 91.5848 5.57994 91.9768 5.57994C92.6861 5.57994 93.2321 5.78061 93.6148 6.18194C94.0068 6.57394 94.2028 7.12927 94.2028 7.84794V12.6779C94.2028 12.9113 93.9881 13.0279 93.5588 13.0279H93.4048C92.9754 13.0279 92.7608 12.9113 92.7608 12.6779V8.01594C92.7608 7.63327 92.6534 7.33927 92.4388 7.13394C92.2241 6.91927 91.9114 6.81194 91.5008 6.81194C91.2021 6.81194 90.9128 6.90061 90.6328 7.07794C90.3528 7.24594 90.1194 7.46527 89.9328 7.73594V12.6779C89.9328 12.9113 89.7181 13.0279 89.2888 13.0279H89.1348ZM98.4257 13.0979C97.9124 13.0979 97.4691 12.9439 97.0957 12.6359C96.7317 12.3186 96.5497 11.7959 96.5497 11.0679V6.86794H95.9897C95.8777 6.86794 95.7937 6.83061 95.7377 6.75594C95.6911 6.67194 95.6677 6.54127 95.6677 6.36394V6.18194C95.6677 6.00461 95.6911 5.87861 95.7377 5.80394C95.7937 5.71994 95.8777 5.67794 95.9897 5.67794H96.5497L96.7317 4.24994C96.7597 4.01661 96.9371 3.89994 97.2637 3.89994H97.4877C97.8237 3.89994 97.9917 4.01661 97.9917 4.24994V5.67794H99.0277C99.1397 5.67794 99.2191 5.71994 99.2657 5.80394C99.3217 5.87861 99.3497 6.00461 99.3497 6.18194V6.36394C99.3497 6.54127 99.3217 6.67194 99.2657 6.75594C99.2191 6.83061 99.1397 6.86794 99.0277 6.86794H97.9917V10.9979C97.9917 11.3339 98.0477 11.5719 98.1597 11.7119C98.2811 11.8426 98.4537 11.9079 98.6777 11.9079C98.8084 11.9079 98.9157 11.8986 98.9997 11.8799C99.0931 11.8519 99.1631 11.8379 99.2097 11.8379C99.3031 11.8379 99.3824 11.9406 99.4477 12.1459C99.5131 12.3419 99.5457 12.4913 99.5457 12.5939C99.5457 12.9299 99.1724 13.0979 98.4257 13.0979ZM102.693 13.1259C102.301 13.1259 101.932 13.0793 101.587 12.9859C101.242 12.8926 100.962 12.7759 100.747 12.6359C100.542 12.4959 100.439 12.3559 100.439 12.2159C100.439 12.0946 100.504 11.9313 100.635 11.7259C100.775 11.5113 100.896 11.4039 100.999 11.4039C101.018 11.4039 101.111 11.4553 101.279 11.5579C101.447 11.6513 101.638 11.7353 101.853 11.8099C102.068 11.8846 102.31 11.9219 102.581 11.9219C103.393 11.9219 103.799 11.5953 103.799 10.9419C103.799 10.6526 103.696 10.4286 103.491 10.2699C103.286 10.1019 102.94 9.93861 102.455 9.77994C101.802 9.58394 101.33 9.32727 101.041 9.00994C100.752 8.68327 100.607 8.23994 100.607 7.67994C100.607 7.05461 100.826 6.55061 101.265 6.16794C101.704 5.77594 102.278 5.57994 102.987 5.57994C103.472 5.57994 103.916 5.64527 104.317 5.77594C104.718 5.89727 104.919 6.05127 104.919 6.23794C104.919 6.37794 104.858 6.55527 104.737 6.76994C104.625 6.98461 104.518 7.09194 104.415 7.09194C104.378 7.08261 104.252 7.02661 104.037 6.92394C103.822 6.81194 103.533 6.75594 103.169 6.75594C102.842 6.75594 102.576 6.82594 102.371 6.96594C102.166 7.09661 102.063 7.28327 102.063 7.52594C102.063 7.81527 102.161 8.04861 102.357 8.22594C102.562 8.39394 102.875 8.55261 103.295 8.70194C103.79 8.86994 104.172 9.04261 104.443 9.21994C104.723 9.39727 104.924 9.61661 105.045 9.87794C105.176 10.1393 105.241 10.4706 105.241 10.8719C105.241 11.3013 105.129 11.6886 104.905 12.0339C104.69 12.3793 104.387 12.6499 103.995 12.8459C103.612 13.0326 103.178 13.1259 102.693 13.1259Z" fill="white"/>
<path d="M4.36317 5.71429C5.16633 5.71429 5.85184 5.43538 6.41989 4.87732C6.98814 4.3193 7.27228 3.64585 7.27228 2.8572C7.27228 2.06863 6.98814 1.39518 6.41989 0.837084C5.85184 0.279067 5.16629 0 4.36317 0C3.56009 0 2.87455 0.279067 2.30638 0.837084C1.73825 1.39518 1.4541 2.06847 1.4541 2.8572C1.4541 3.64601 1.73825 4.3193 2.30638 4.87732C2.87455 5.43522 3.56009 5.71429 4.36317 5.71429Z" fill="white"/>
<path d="M7.82372 10.1732C8.676 11.01 9.70428 11.4285 10.909 11.4285C12.1138 11.4285 13.142 11.01 13.9942 10.1732C14.8464 9.33586 15.2726 8.32583 15.2726 7.14287C15.2726 5.95983 14.8464 4.94984 13.9942 4.11275C13.142 3.27566 12.1138 2.85712 10.909 2.85712C9.70428 2.85712 8.67592 3.27574 7.82372 4.11275C6.97153 4.94972 6.54529 5.95971 6.54529 7.14287C6.54529 8.32603 6.97153 9.33598 7.82372 10.1732Z" fill="white"/>
<path d="M17.4542 5.71429C18.2571 5.71429 18.9428 5.43538 19.5109 4.87732C20.0791 4.3193 20.3631 3.64585 20.3631 2.8572C20.3631 2.06863 20.0791 1.39518 19.5109 0.837084C18.9428 0.279067 18.2571 0 17.4542 0C16.6508 0 15.9653 0.279067 15.3971 0.837084C14.829 1.39518 14.5449 2.06847 14.5449 2.8572C14.5449 3.64601 14.8291 4.3193 15.3971 4.87732C15.9653 5.43522 16.6508 5.71429 17.4542 5.71429Z" fill="white"/>
<path d="M20.4494 5.71436C20.4055 5.71436 20.2454 5.7925 19.9694 5.94874C19.6937 6.10505 19.3348 6.26317 18.8934 6.42316C18.452 6.583 18.014 6.66302 17.58 6.66302C17.0868 6.66302 16.5978 6.57753 16.112 6.40632C16.1485 6.68147 16.1671 6.92707 16.1671 7.14284C16.1671 8.17703 15.869 9.12932 15.2727 9.99985C16.465 10.0372 17.4398 10.5132 18.198 11.4286H19.677C20.2803 11.4286 20.788 11.2776 21.2 10.9764C21.612 10.6753 21.8182 10.2342 21.8182 9.65398C21.8183 7.02741 21.3622 5.7142 20.4494 5.71436Z" fill="white"/>
<path d="M18.7106 14.7378C18.631 14.3025 18.5305 13.8988 18.4093 13.5268C18.288 13.1547 18.1251 12.7922 17.9209 12.4387C17.7163 12.0856 17.4813 11.784 17.2161 11.5346C16.9508 11.2853 16.6269 11.0865 16.2444 10.9375C15.862 10.7887 15.4395 10.7144 14.9774 10.7144C14.9016 10.7144 14.7388 10.7944 14.4888 10.9544C14.2387 11.1142 13.9624 11.2931 13.6593 11.49C13.3562 11.6869 12.9512 11.8656 12.4433 12.0256C11.9354 12.1856 11.4241 12.2656 10.9092 12.2656C10.3941 12.2656 9.8827 12.1856 9.37511 12.0256C8.86741 11.8656 8.46223 11.6869 8.15918 11.49C7.85605 11.2931 7.57963 11.1142 7.32968 10.9544C7.07961 10.7944 6.91682 10.7144 6.84096 10.7144C6.37891 10.7144 5.95657 10.7887 5.57396 10.9375C5.19135 11.0865 4.86753 11.2853 4.60241 11.5346C4.33705 11.7837 4.10243 12.0856 3.89773 12.4387C3.69327 12.7922 3.5304 13.1547 3.40916 13.5268C3.28797 13.8988 3.18771 14.3025 3.10803 14.7378C3.02842 15.1731 2.97545 15.5785 2.94894 15.9544C2.92239 16.3302 2.90918 16.7153 2.90918 17.1097C2.90918 18.0024 3.1856 18.7075 3.7386 19.2244C4.2918 19.7413 5.02669 20.0001 5.94316 20.0001H15.875C16.7915 20.0001 17.5264 19.7413 18.0797 19.2244C18.6327 18.7075 18.9092 18.0024 18.9092 17.1097C18.9092 16.7153 18.8958 16.3303 18.8697 15.9544C18.8428 15.5785 18.7898 15.1731 18.7106 14.7378Z" fill="white"/>
<path d="M6.54545 10.0001C5.94938 9.12949 5.65141 8.17715 5.65153 7.14291C5.65153 6.92712 5.66997 6.68167 5.7067 6.40635C5.22096 6.57745 4.73163 6.66306 4.23858 6.66306C3.80441 6.66306 3.36669 6.58308 2.92511 6.4232C2.48371 6.2632 2.12486 6.10507 1.84901 5.94875C1.57305 5.7925 1.41287 5.71436 1.36876 5.71436C0.456241 5.71439 0 7.02767 0 9.65417C0 10.2344 0.206064 10.6755 0.618076 10.9766C1.0302 11.2779 1.53798 11.4286 2.14121 11.4286H3.62039C4.37842 10.5135 5.3533 10.0373 6.54545 10.0001Z" fill="white"/>
</svg>
