<svg width="36" height="20" viewBox="0 0 36 20" fill="none" xmlns="http://www.w3.org/2000/svg">
<path d="M9.14332 6.28571H7.61951C6.70523 6.28571 6.0957 6.89523 6.0957 7.80952V9.33332H10.6671V7.80952C10.6671 6.89523 10.0576 6.28571 9.14332 6.28571Z" fill="#56697F"/>
<path fill-rule="evenodd" clip-rule="evenodd" d="M4.62112 0H30.8075C33.4261 0 35.4286 1.99996 35.4286 4.61538V15.3846C35.4286 18 33.4261 20 30.8075 20H4.62112C2.00244 20 0 18 0 15.3846V4.61538C0 1.99996 2.00244 0 4.62112 0ZM12.323 15.3846V10.7692V7.69231C12.323 5.99996 10.9367 4.61538 9.24224 4.61538H7.70186C6.00741 4.61538 4.62112 5.99996 4.62112 7.69231V9.99996V15.3846H6.16149V10.7692H10.7826V15.3846H12.323ZM21.5652 10.7692V15.3846H20.0248V10.7692H15.4037V15.3846H13.8634V9.99996V7.69231C13.8634 5.99996 15.2496 4.61538 16.9441 4.61538H18.4845C20.1788 4.61538 21.5652 5.99996 21.5652 7.69231V10.7692ZM27.7267 13.8462H26.1863C25.2621 13.8462 24.646 13.2308 24.646 12.3077V7.69231C24.646 6.76923 25.2621 6.15385 26.1863 6.15385H27.7267C28.6509 6.15385 29.2671 6.76923 29.2671 7.69231H30.8075C30.8075 5.99996 29.4211 4.61538 27.7267 4.61538H26.1863C24.492 4.61538 23.1056 5.99996 23.1056 7.69231V12.3077C23.1056 14 24.492 15.3846 26.1863 15.3846H27.7267C29.4211 15.3846 30.8075 14 30.8075 12.3077H29.2671C29.2671 13.2308 28.6509 13.8462 27.7267 13.8462Z" fill="#56697F"/>
<path d="M18.4763 6.28571H16.9525C16.0382 6.28571 15.4287 6.89523 15.4287 7.80952V9.33332H20.0001V7.80952C20.0001 6.89523 19.3906 6.28571 18.4763 6.28571Z" fill="#56697F"/>
</svg>
