<svg width="22" height="20" viewBox="0 0 22 20" fill="none" xmlns="http://www.w3.org/2000/svg">
<path d="M21.1037 14.5313C20.9639 14.1009 20.5015 13.8655 20.071 14.0051L19.0051 14.3514C19.658 13.0011 20 11.5163 20 10C20 4.48597 15.5141 0 10 0C4.48597 0 0 4.48597 0 10C0 15.514 4.48597 20 10 20C10.4527 20 10.8197 19.633 10.8197 19.1803C10.8197 18.7277 10.4527 18.3607 10 18.3607C5.3899 18.3607 1.63934 14.6102 1.63934 10C1.63934 5.3899 5.3899 1.63934 10 1.63934C14.6102 1.63934 18.3607 5.3899 18.3607 10C18.3607 11.2703 18.074 12.5139 17.5264 13.6438L17.1622 12.5228C17.0224 12.0923 16.5599 11.8568 16.1294 11.9965C15.6989 12.1365 15.4632 12.5989 15.6031 13.0294L16.5696 16.0043C16.6821 16.3508 17.0034 16.571 17.349 16.571C17.4329 16.571 17.5183 16.558 17.6024 16.5308L20.5774 15.5643C21.0079 15.4244 21.2436 14.962 21.1037 14.5313Z" fill="#FFC03A"/>
</svg>
