<svg width="22" height="31" viewBox="0 0 22 31" fill="none" xmlns="http://www.w3.org/2000/svg">
<path fill-rule="evenodd" clip-rule="evenodd" d="M1 0C0.447266 0 0 0.447754 0 1V29.833C0 30.6919 1.01172 31.1514 1.6582 30.5864L11 22.4248L20.3418 30.5864C20.9883 31.1514 22 30.6919 22 29.833V1C22 0.447754 21.5527 0 21 0H18.334H3.66602H1Z" fill="#C0C0C0"/>
<path fill-rule="evenodd" clip-rule="evenodd" d="M13.6356 9.48748C13.3594 9.48748 13.1356 9.26363 13.1356 8.98748V3.66354C13.1356 3.17311 12.503 2.97583 12.2242 3.37932L7.14614 10.7291C6.91699 11.0608 7.15439 11.5134 7.5575 11.5134H9.36799C9.64413 11.5134 9.86799 11.7372 9.86799 12.0134V17.3373C9.86799 17.8277 10.5006 18.025 10.7794 17.6215L15.8574 10.2717C16.0866 9.94005 15.8492 9.48748 15.4461 9.48748H13.6356Z" fill="white"/>
</svg>
