<svg width="17" height="17" viewBox="0 0 17 17" fill="none" xmlns="http://www.w3.org/2000/svg">
<circle cx="8.5" cy="8.5" r="8" fill="white" stroke="#C0C0C0"/>
<path d="M9.4375 4.21094C9.22396 4.21094 9.04167 4.1276 8.89062 3.96094C8.73958 3.79427 8.66406 3.59375 8.66406 3.35938C8.66406 3.11979 8.73958 2.91667 8.89062 2.75C9.04167 2.58333 9.22396 2.5 9.4375 2.5C9.65104 2.5 9.83333 2.58333 9.98438 2.75C10.1406 2.91667 10.2188 3.11979 10.2188 3.35938C10.2188 3.59896 10.1406 3.80208 9.98438 3.96875C9.83333 4.13021 9.65104 4.21094 9.4375 4.21094ZM9.625 5.92188C9.65625 5.9375 9.66927 5.95833 9.66406 5.98438L8.08594 11.5625C8.01302 11.8594 7.97656 12.0365 7.97656 12.0938C7.97656 12.1719 7.99219 12.2396 8.02344 12.2969C8.04948 12.3594 8.11458 12.3906 8.21875 12.3906C8.39583 12.3906 8.63021 12.237 8.92188 11.9297C9.09375 11.7474 9.30469 11.487 9.55469 11.1484L9.75781 11.3203L9.67969 11.4297C9.28906 11.9766 8.96615 12.3698 8.71094 12.6094C8.3099 12.9844 7.91927 13.1719 7.53906 13.1719C7.3151 13.1719 7.1276 13.0781 6.97656 12.8906C6.83073 12.7031 6.75781 12.4818 6.75781 12.2266C6.75781 12.0755 6.76823 11.9453 6.78906 11.8359C6.8099 11.7214 6.84896 11.5547 6.90625 11.3359L8 7.32031C8.01562 7.25781 8.02865 7.20052 8.03906 7.14844C8.04948 7.09635 8.05469 7.04427 8.05469 6.99219C8.05469 6.80469 7.98438 6.6901 7.84375 6.64844C7.70833 6.60156 7.4375 6.57812 7.03125 6.57812V6.32031C7.46354 6.26823 7.77344 6.22917 7.96094 6.20312C8.15365 6.17188 8.34635 6.14062 8.53906 6.10938C8.78906 6.06771 9.02604 6.02083 9.25 5.96875C9.47396 5.91667 9.59896 5.90104 9.625 5.92188Z" fill="#333333"/>
</svg>
