<svg width="27" height="12" viewBox="0 0 27 12" fill="none" xmlns="http://www.w3.org/2000/svg">
<path fill-rule="evenodd" clip-rule="evenodd" d="M5.6094 1.34759C7.62237 0.523046 9.75823 0.25 11.1304 0.25H16.949C19.45 0.25 21.8802 1.49867 23.6617 3.03629C24.5591 3.81088 25.3184 4.68072 25.8586 5.54665C26.3901 6.39861 26.7501 7.31235 26.7501 8.16114C26.7501 9.55397 26.4042 10.7294 25.3157 11.3384C24.328 11.8909 22.9477 11.8269 21.3265 11.5004C19.6865 11.1702 18.824 9.98213 18.4197 8.77336C18.1046 7.83132 18.0422 6.82113 18.0894 6.02471C16.9236 5.57831 15.1994 5.33057 13.434 5.33057C11.6593 5.33057 10.0175 5.58098 8.99498 6.01152C9.05478 8.14436 8.48322 9.52408 7.67735 10.3832C6.82988 11.2866 5.81335 11.5152 5.31183 11.5152C5.27897 11.5152 5.23707 11.5173 5.17172 11.5206C5.10947 11.5237 5.02593 11.528 4.90864 11.5324C4.69841 11.5405 4.43058 11.5461 4.13228 11.535C3.54716 11.5132 2.79427 11.4256 2.10536 11.1283C1.39845 10.8232 0.724117 10.2786 0.41772 9.35301C0.120689 8.45571 0.214237 7.33112 0.729929 5.94636C1.60704 3.5911 3.59876 2.17117 5.6094 1.34759ZM6.17797 2.73565C4.37421 3.4745 2.81013 4.65862 2.13562 6.46985C1.68155 7.68914 1.69428 8.43621 1.84173 8.88162C1.9798 9.29874 2.27524 9.56789 2.69971 9.75107C3.14219 9.94203 3.68232 10.0172 4.18818 10.0361C4.43538 10.0453 4.66253 10.0408 4.85132 10.0335C4.9083 10.0314 4.97121 10.0284 5.03295 10.0255C5.14302 10.0202 5.24938 10.0152 5.31183 10.0152C5.45681 10.0152 6.05677 9.91828 6.58335 9.35693C7.08931 8.81755 7.62472 7.74302 7.47343 5.61016L7.44018 5.1414L7.84749 4.90703C9.15547 4.1544 11.3411 3.83057 13.434 3.83057C15.5391 3.83057 17.7785 4.15842 19.2259 4.88723L19.7067 5.12937L19.6311 5.66244C19.5347 6.34207 19.5389 7.39051 19.8423 8.29758C20.1384 9.18291 20.6766 9.83942 21.6226 10.03C23.234 10.3545 24.1164 10.2905 24.5834 10.0293C24.9495 9.82443 25.2501 9.37237 25.2501 8.16114C25.2501 7.70791 25.0444 7.07549 24.5859 6.34061C24.1362 5.61969 23.4812 4.862 22.6816 4.17182C21.0689 2.77987 18.9735 1.75 16.949 1.75H11.1304C9.91654 1.75 7.9794 1.99776 6.17797 2.73565Z" fill="white"/>
</svg>
