<svg width="16" height="18" fill="none" xmlns="http://www.w3.org/2000/svg"><path fill-rule="evenodd" clip-rule="evenodd" d="M10.086 7.3V3.5a2.086 2.086 0 0 0-4.172 0v3.8a2.086 2.086 0 0 0 4.172 0zM8 0a3.5 3.5 0 0 0-3.5 3.5v3.8a3.5 3.5 0 1 0 7 0V3.5A3.5 3.5 0 0 0 8 0z" fill="#fff"/><path fill-rule="evenodd" clip-rule="evenodd" d="M1 5.218c.39 0 .707.317.707.707 0 3.783 2.86 6.768 6.293 6.768 3.432 0 6.293-2.985 6.293-6.768a.707.707 0 0 1 1.414 0c0 4.475-3.407 8.182-7.707 8.182S.293 10.4.293 5.925c0-.39.317-.707.707-.707z" fill="#fff"/><path fill-rule="evenodd" clip-rule="evenodd" d="M7.46 18v-4.6h1.415V18H7.461z" fill="#fff"/><path fill-rule="evenodd" clip-rule="evenodd" d="M4.232 17.293c0-.39.317-.707.708-.707h6.124a.707.707 0 0 1 0 1.414H4.94a.707.707 0 0 1-.708-.707z" fill="#fff"/></svg>