<svg width="30" height="30" fill="none" xmlns="http://www.w3.org/2000/svg"><path d="M12.938.213c-3.755.78-6.745 3.855-7.44 7.653-.434 2.368-.007 4.777 1.202 6.785 1.425 2.365 2.147 4.727 2.147 7.02v1.852c0 1.365.702 2.431 1.758 2.81v1.03A2.64 2.64 0 0 0 13.242 30h3.516a2.64 2.64 0 0 0 2.636-2.637v-1.03a2.64 2.64 0 0 0 1.758-2.485V21.66c0-2.349.71-4.719 2.051-6.854a9.773 9.773 0 0 0 1.465-5.14c0-6.082-5.565-10.734-11.73-9.454zm4.699 27.15a.88.88 0 0 1-.88.88h-3.515a.88.88 0 0 1-.879-.88v-.879h5.274v.88zm1.757-3.515a.88.88 0 0 1-.879.878h-7.03c-.535 0-.88-.472-.88-1.203v-.613h8.79v.938zm.01-2.696h-8.81a13.232 13.232 0 0 0-.19-1.758h9.18c-.097.584-.158 1.17-.18 1.758zm2.31-7.28a15.413 15.413 0 0 0-1.72 3.764H15.88v-4.039l1.51-1.56a.879.879 0 1 0-1.263-1.223L15 11.978l-1.127-1.164a.879.879 0 1 0-1.263 1.222l1.51 1.561v4.04H9.978c-.4-1.298-.991-2.598-1.771-3.893-.988-1.64-1.336-3.615-.98-5.561A7.853 7.853 0 0 1 14.98 1.76a7.902 7.902 0 0 1 7.93 7.907 7.994 7.994 0 0 1-1.195 4.205zM29.121 10.604h-1.758a.879.879 0 0 0 0 1.758h1.758a.879.879 0 0 0 0-1.758zM29.743 5.588a.879.879 0 0 0-1.243 0l-1.758 1.758a.879.879 0 0 0 1.243 1.243l1.758-1.758a.879.879 0 0 0 0-1.243zM29.743 16.135l-1.758-1.757a.879.879 0 1 0-1.243 1.242l1.758 1.758a.879.879 0 1 0 1.243-1.243zM2.637 10.604H.879a.879.879 0 0 0 0 1.758h1.758a.879.879 0 0 0 0-1.758zM3.258 7.346L1.5 5.588A.879.879 0 1 0 .257 6.831L2.015 8.59a.879.879 0 1 0 1.243-1.243zM3.258 14.378a.879.879 0 0 0-1.243 0L.257 16.135A.879.879 0 0 0 1.5 17.378l1.758-1.758a.879.879 0 0 0 0-1.242z" fill="#fff"/></svg>