<svg width="30" height="29" viewBox="0 0 30 29" fill="none" xmlns="http://www.w3.org/2000/svg">
<path d="M29.9571 11.011C29.8534 10.6873 29.5786 10.4513 29.2475 10.4024L19.9874 9.03378L15.8466 0.497944C15.6984 0.19275 15.3931 -0.000976562 15.0585 -0.000976562C14.724 -0.000976562 14.4187 0.19275 14.2705 0.497944L10.1297 9.03259L0.754193 10.4024C0.421381 10.4507 0.144819 10.6879 0.0422803 11.014C-0.0608446 11.3394 0.0282178 11.6959 0.270796 11.9325L7.08225 18.5764L5.50139 27.9539C5.44456 28.2889 5.5805 28.6281 5.85061 28.8284C6.1219 29.028 6.48049 29.0549 6.77639 28.8963L15.0586 24.4668L23.3408 28.8963C23.6357 29.0538 23.9953 29.0287 24.266 28.8283C24.5367 28.628 24.6726 28.2888 24.6158 27.9538L23.0343 18.5716L29.7344 11.9277C29.9741 11.6899 30.0602 11.3347 29.9571 11.011ZM21.4763 17.6191C21.2689 17.8247 21.1746 18.121 21.2238 18.4107L22.5826 26.4703L15.4676 22.6649C15.3399 22.5964 15.1992 22.5624 15.0586 22.5624C14.918 22.5624 14.7774 22.5964 14.6496 22.6649L7.53465 26.4703L8.89344 18.4107C8.94325 18.118 8.84656 17.82 8.63563 17.6143L2.78921 11.9117L10.8382 10.7356C11.1247 10.6939 11.3731 10.5109 11.5014 10.2468L15.0586 2.91387L18.6158 10.2468C18.7441 10.5103 18.9914 10.6933 19.2779 10.7356L27.2326 11.9117L21.4763 17.6191Z" fill="#54B9B5"/>
</svg>
