<svg width="30" height="30" viewBox="0 0 30 30" fill="none" xmlns="http://www.w3.org/2000/svg">
<path d="M12.9379 0.212116C9.18285 0.991437 6.19258 4.06689 5.49707 7.865C5.06353 10.2327 5.4908 12.6423 6.70023 14.65C8.12494 17.0153 8.8474 19.3769 8.8474 21.6691C8.8474 22.3105 8.8474 22.8787 8.8474 23.522C8.8474 24.8868 9.54935 25.9532 10.6052 26.3327V27.3622C10.6052 28.8162 11.788 29.999 13.2419 29.999H16.7576C18.2114 29.999 19.3943 28.8162 19.3943 27.3622V26.3321C20.4173 25.9693 21.1521 24.9923 21.1521 23.8465V21.6605C21.1521 19.3112 21.8613 16.9411 23.2031 14.8064C24.1476 13.3037 24.6677 11.4784 24.6677 9.66634C24.6677 3.58365 19.1031 -1.0675 12.9379 0.212116ZM17.6365 27.3622C17.6365 27.8469 17.2422 28.2412 16.7576 28.2412H13.2419C12.7573 28.2412 12.363 27.8469 12.363 27.3622V26.4833H17.6365V27.3622ZM19.3943 23.8465C19.3943 24.3311 19 24.7254 18.5154 24.7254H11.4841C10.9502 24.7254 10.6052 24.2531 10.6052 23.522V22.909H19.3943V23.8465ZM19.404 21.1511H10.5944C10.5708 20.5671 10.507 19.9809 10.4037 19.3932H19.5844C19.4866 19.9769 19.4262 20.5638 19.404 21.1511ZM21.7149 13.8709C20.9618 15.069 20.385 16.3358 19.9947 17.6353H15.8787V13.5963L17.3891 12.0354C17.7267 11.6866 17.7176 11.1302 17.3687 10.7926C17.0199 10.455 16.4635 10.4642 16.126 10.813L14.9997 11.9768L13.8735 10.813C13.536 10.4642 12.9796 10.455 12.6307 10.7926C12.2819 11.1302 12.2728 11.6866 12.6104 12.0354L14.1208 13.5963V17.6353H9.97738C9.57678 16.338 8.98574 15.0376 8.20592 13.743C7.21779 12.1026 6.8698 10.1275 7.22611 8.18165C7.86678 4.68302 10.9359 1.75927 14.9805 1.75927C19.4031 1.75927 22.9099 5.31761 22.9099 9.66634C22.9099 11.1516 22.4855 12.6449 21.7149 13.8709Z" fill="#54B9B5"/>
<path d="M29.1211 10.6035H27.3633C26.8779 10.6035 26.4844 10.997 26.4844 11.4824C26.4844 11.9679 26.8779 12.3614 27.3633 12.3614H29.1211C29.6065 12.3614 30 11.9679 30 11.4824C30 10.997 29.6065 10.6035 29.1211 10.6035Z" fill="#54B9B5"/>
<path d="M29.7426 5.58752C29.3994 5.24426 28.8429 5.24426 28.4996 5.58752L26.7418 7.34539C26.3986 7.68864 26.3986 8.24512 26.7418 8.58838C27.085 8.93163 27.6416 8.93169 27.9848 8.58838L29.7426 6.83051C30.0858 6.48725 30.0858 5.93077 29.7426 5.58752Z" fill="#54B9B5"/>
<path d="M29.7426 16.1344L27.9848 14.3766C27.6416 14.0333 27.085 14.0333 26.7418 14.3766C26.3986 14.7198 26.3986 15.2763 26.7418 15.6196L28.4996 17.3774C28.8428 17.7207 29.3994 17.7207 29.7426 17.3774C30.0858 17.0342 30.0858 16.4777 29.7426 16.1344Z" fill="#54B9B5"/>
<path d="M2.63672 10.6035H0.878906C0.393516 10.6035 0 10.997 0 11.4824C0 11.9679 0.393516 12.3614 0.878906 12.3614H2.63672C3.12211 12.3614 3.51562 11.9679 3.51562 11.4824C3.51562 10.997 3.12211 10.6035 2.63672 10.6035Z" fill="#54B9B5"/>
<path d="M3.25819 7.34539L1.50038 5.58752C1.1572 5.24426 0.600674 5.24426 0.257432 5.58752C-0.0858105 5.93077 -0.0858105 6.48725 0.257432 6.83051L2.01524 8.58838C2.35843 8.93163 2.91501 8.93163 3.25819 8.58838C3.60144 8.24512 3.60144 7.68864 3.25819 7.34539Z" fill="#54B9B5"/>
<path d="M3.25819 14.3766C2.91495 14.0333 2.35843 14.0333 2.01524 14.3766L0.257432 16.1344C-0.0858105 16.4777 -0.0858105 17.0342 0.257432 17.3774C0.600615 17.7207 1.1572 17.7207 1.50038 17.3774L3.25819 15.6196C3.60144 15.2763 3.60144 14.7198 3.25819 14.3766Z" fill="#54B9B5"/>
</svg>
