<svg width="22" height="32" viewBox="0 0 22 32" fill="none" xmlns="http://www.w3.org/2000/svg">
<path fill-rule="evenodd" clip-rule="evenodd" d="M1 9.21607C1 -1.33551 21 -2.01626 21 8.8757C21 15.3428 14.4483 15.0024 13.069 21.1292C12.3793 24.1925 8.24138 23.8522 8.24138 20.4484C8.24138 14.6621 13.069 14.3217 15.1379 10.5776C16.5172 7.85458 14.1034 5.13159 11.3448 5.13159C5.48276 5.13159 7.55172 11.5987 3.75862 11.5987C2.37931 11.5987 1 10.5776 1 9.21607ZM10.6552 31C6.51724 31 6.86207 24.8733 10.6552 24.8733C14.7931 24.8733 14.7931 31 10.6552 31Z" fill="#F8F8F8" stroke="#54B9B5" stroke-width="1.5"/>
</svg>
