<svg width="47" height="47" viewBox="0 0 47 47" fill="none" xmlns="http://www.w3.org/2000/svg">
<path fill-rule="evenodd" clip-rule="evenodd" d="M23.5 43.5C34.5457 43.5 43.5 34.5457 43.5 23.5C43.5 12.4543 34.5457 3.5 23.5 3.5C12.4543 3.5 3.5 12.4543 3.5 23.5C3.5 34.5457 12.4543 43.5 23.5 43.5ZM23.5 47C36.4787 47 47 36.4787 47 23.5C47 10.5213 36.4787 0 23.5 0C10.5213 0 0 10.5213 0 23.5C0 36.4787 10.5213 47 23.5 47Z" fill="white"/>
<circle opacity="0.7" cx="23.5" cy="23.5" r="17.5" fill="#F6F6F6"/>
<rect x="18" y="15" width="4" height="16" rx="2" fill="white"/>
<rect x="26" y="15" width="4" height="16" rx="2" fill="white"/>
</svg>
