<svg width="21" height="18" fill="none" xmlns="http://www.w3.org/2000/svg"><path fill-rule="evenodd" clip-rule="evenodd" d="M1.5 6.278V16.5h13.19V6.278H1.5zm-.5-1.5a1 1 0 0 0-1 1V17a1 1 0 0 0 1 1h14.19a1 1 0 0 0 1-1V5.778a1 1 0 0 0-1-1H1z" fill="#fff"/><path fill-rule="evenodd" clip-rule="evenodd" d="M3.059 2c0-.966.783-1.75 1.75-1.75h14.19c.967 0 1.75.784 1.75 1.75v11.222a1.75 1.75 0 0 1-1.75 1.75h-1.857v-1.5h1.857a.25.25 0 0 0 .25-.25V2a.25.25 0 0 0-.25-.25H4.81a.25.25 0 0 0-.25.25v1.833h-1.5V2z" fill="#fff"/></svg>