<svg width="17" height="18" fill="none" xmlns="http://www.w3.org/2000/svg"><path fill-rule="evenodd" clip-rule="evenodd" d="M0 2.207c0-.35.284-.635.635-.635h15.73a.635.635 0 0 1 0 1.27H.635A.635.635 0 0 1 0 2.207z" fill="#fff"/><path d="M7.556 2.368a2.365 2.365 0 0 1-2.36 2.369 2.365 2.365 0 0 1-2.362-2.369A2.365 2.365 0 0 1 5.195 0a2.365 2.365 0 0 1 2.361 2.368z" fill="#fff"/><path fill-rule="evenodd" clip-rule="evenodd" d="M0 8.838c0-.35.284-.635.635-.635h15.73a.635.635 0 0 1 0 1.27H.635A.635.635 0 0 1 0 8.839z" fill="#fff"/><path d="M15.11 9a2.365 2.365 0 0 1-2.36 2.369A2.365 2.365 0 0 1 10.389 9a2.365 2.365 0 0 1 2.36-2.368A2.365 2.365 0 0 1 15.112 9z" fill="#fff"/><path fill-rule="evenodd" clip-rule="evenodd" d="M0 15.47c0-.35.284-.635.635-.635h15.73a.635.635 0 0 1 0 1.27H.635A.635.635 0 0 1 0 15.47z" fill="#fff"/><path d="M7.556 15.632A2.365 2.365 0 0 1 5.196 18a2.365 2.365 0 0 1-2.362-2.368 2.365 2.365 0 0 1 2.361-2.369 2.365 2.365 0 0 1 2.361 2.369z" fill="#fff"/></svg>