<svg width="18" height="18" fill="none" xmlns="http://www.w3.org/2000/svg"><circle cx="9" cy="9" r="9" fill="#54B9B5"/><path d="M15.649 6.664a.408.408 0 0 1 .331.272.395.395 0 0 1-.104.411l-3.127 2.979.738 4.205a.397.397 0 0 1-.163.393.418.418 0 0 1-.432.03l-3.865-1.986-3.865 1.986a.419.419 0 0 1-.432-.03.397.397 0 0 1-.163-.393l.738-4.203L2.126 7.35a.394.394 0 0 1-.106-.412.407.407 0 0 1 .332-.274l4.375-.614L8.66 2.224A.411.411 0 0 1 9.027 2c.156 0 .299.087.368.224l1.933 3.826 4.32.614z" fill="#fff"/></svg>