<svg width="18" height="18" fill="none" xmlns="http://www.w3.org/2000/svg"><circle cx="9" cy="9" r="9" fill="#54B9B5"/><path d="M12.4 11.298a9.834 9.834 0 0 1 .845-1.67A4.986 4.986 0 0 0 8.988 2a4.959 4.959 0 0 0-4.902 4.046 5.01 5.01 0 0 0 .62 3.503c.353.585.645 1.17.875 1.757.16.408.543.695.981.695h4.852c.441 0 .825-.291.986-.702z" fill="#fff"/><rect x="6" y="13" width="6" height="1" rx=".5" fill="#fff"/><path d="M7 15.5a.5.5 0 0 1 .5-.5h3a.5.5 0 0 1 0 1h-3a.5.5 0 0 1-.5-.5z" fill="#fff"/></svg>