<svg width="29" height="19" viewBox="0 0 29 19" fill="none" xmlns="http://www.w3.org/2000/svg">
<path d="M12.8313 0.0112305C13.3638 0.0112305 13.8744 0.222607 14.2509 0.598861C14.6275 0.975114 14.839 1.48542 14.839 2.01753V16.994C14.8389 17.3601 14.7387 17.7192 14.549 18.0325C14.3593 18.3457 14.0875 18.6011 13.763 18.771C13.4385 18.9409 13.0736 19.0188 12.708 18.9963C12.3423 18.9738 11.9898 18.8518 11.6885 18.6434L0.864626 11.1541C0.597848 10.9695 0.379829 10.723 0.229245 10.4357C0.078661 10.1484 0 9.82899 0 9.5047C0 9.18042 0.078661 8.86096 0.229245 8.57371C0.379829 8.28645 0.597848 8.03995 0.864626 7.85532L11.6885 0.367612C12.0243 0.135449 12.423 0.0111264 12.8313 0.0112305ZM12.7711 1.93041L1.9477 9.41812C1.92476 9.4341 1.90909 9.45853 1.90414 9.48605C1.89918 9.51356 1.90535 9.54192 1.92129 9.56489C1.92551 9.57176 5.54247 12.077 12.7711 17.0806C12.7869 17.0916 12.8055 17.098 12.8247 17.0992C12.8439 17.1004 12.8631 17.0963 12.8802 17.0874C12.8973 17.0785 12.9116 17.0651 12.9216 17.0486C12.9316 17.0321 12.937 17.0133 12.937 16.994V2.01753C12.937 1.99822 12.9318 1.97926 12.9218 1.96272C12.9119 1.94617 12.8976 1.93268 12.8805 1.9237C12.8634 1.91472 12.8441 1.91059 12.8248 1.91178C12.8056 1.91296 12.787 1.9194 12.7711 1.93041ZM18.215 6.65788C18.1022 6.43243 18.0836 6.17145 18.1634 5.93233C18.2432 5.69321 18.4147 5.49554 18.6403 5.38282C18.8659 5.2701 19.1271 5.25155 19.3664 5.33126C19.6056 5.41097 19.8034 5.5824 19.9162 5.80784C20.4728 6.92464 20.7611 8.15572 20.7584 9.40333C20.7584 10.6705 20.4678 11.8954 19.9199 12.9925C19.8073 13.218 19.6096 13.3896 19.3703 13.4694C19.1311 13.5493 18.8699 13.5309 18.6443 13.4183C18.4186 13.3057 18.2469 13.1082 18.167 12.8691C18.0871 12.63 18.1055 12.369 18.2182 12.1435C18.635 11.3093 18.8564 10.3748 18.8564 9.40333C18.8564 8.43081 18.6345 7.49419 18.2155 6.65788H18.215ZM21.4954 4.18908C21.3399 3.99262 21.2684 3.74277 21.2962 3.49386C21.3241 3.24495 21.4492 3.0171 21.6443 2.85985C21.8394 2.70261 22.0887 2.62868 22.338 2.65415C22.5874 2.67962 22.8166 2.80242 22.9758 2.99586C24.4784 4.85802 25.3004 7.0755 25.3004 9.40175C25.3004 11.7264 24.4805 13.9413 22.98 15.8039C22.9017 15.9012 22.805 15.982 22.6954 16.0418C22.5858 16.1017 22.4655 16.1394 22.3413 16.1528C22.2171 16.1662 22.0915 16.155 21.9717 16.1198C21.8518 16.0847 21.7401 16.0264 21.6428 15.9481C21.5455 15.8698 21.4647 15.7731 21.4048 15.6636C21.3449 15.5541 21.3071 15.4339 21.2938 15.3098C21.2804 15.1857 21.2916 15.0602 21.3267 14.9404C21.3618 14.8207 21.4202 14.709 21.4986 14.6118C22.7328 13.0801 23.3979 11.2819 23.3979 9.40175C23.3979 7.52006 22.7317 5.72073 21.4954 4.18908Z" fill="white"/>
<path d="M24.1544 1.56492C23.9913 1.37266 23.9113 1.12353 23.9321 0.87233C23.9528 0.621131 24.0725 0.388442 24.2649 0.22545C24.4573 0.0624588 24.7066 -0.0174831 24.9579 0.00321088C25.2093 0.0239048 25.4421 0.143539 25.6052 0.335796C27.7931 2.916 29.0008 6.0738 29.0008 9.3995C29.0008 12.7236 27.7941 15.8809 25.6089 18.4595C25.529 18.5572 25.4304 18.6379 25.3189 18.6971C25.2074 18.7563 25.0853 18.7927 24.9595 18.8042C24.8338 18.8157 24.7071 18.802 24.5867 18.7641C24.4663 18.7261 24.3547 18.6646 24.2583 18.583C24.162 18.5015 24.0829 18.4016 24.0255 18.2892C23.9682 18.1768 23.9339 18.0541 23.9245 17.9283C23.9151 17.8025 23.9309 17.6761 23.9709 17.5565C24.011 17.4368 24.0744 17.3263 24.1576 17.2314C26.058 14.9891 27.0988 12.2643 27.0988 9.3995C27.0988 6.53314 26.057 3.80827 24.1544 1.56439V1.56492Z" fill="white"/>
</svg>
