<svg width="21" height="20" viewBox="0 0 21 20" fill="none" xmlns="http://www.w3.org/2000/svg">
<path d="M1.71239 10.587C0.961739 10.5928 0.32586 10.1454 0.0914017 9.44727C0.0827038 9.4209 0.0745951 9.39434 0.0670814 9.36761C-0.188418 8.47351 0.307005 7.53814 1.19497 7.23865L15.4373 2.46714C15.6065 2.41822 15.7815 2.39266 15.9575 2.39117C16.7281 2.38516 17.3815 2.84232 17.6217 3.55526L17.643 3.62412C17.9094 4.55538 17.2474 5.38664 16.4543 5.65307C16.4537 5.65348 16.3095 5.70225 2.29088 10.4885C2.10455 10.552 1.90924 10.5853 1.71239 10.587Z" fill="#70CADB"/>
<path d="M4.0907 17.5913C3.33417 17.5968 2.69611 17.1558 2.46438 16.4676C2.45558 16.4414 2.44738 16.415 2.43979 16.3885C2.18074 15.4837 2.67561 14.5385 3.56658 14.2386L17.8095 9.42335C17.9935 9.36187 18.1836 9.33044 18.3747 9.32867C19.1333 9.32293 19.7998 9.78637 20.0349 10.4824L20.0568 10.5548C20.1944 11.0359 20.1131 11.5765 19.8396 12.0032C19.6357 12.3204 18.9927 12.5997 18.9927 12.5997L4.6957 17.4882C4.50071 17.5542 4.29654 17.5891 4.0907 17.5916V17.5913Z" fill="#E01765"/>
<path d="M15.9454 17.6217C15.5762 17.6253 15.2153 17.5119 14.9146 17.2978C14.6138 17.0837 14.3885 16.7799 14.2709 16.4299L9.51756 2.31059L9.49379 2.23135C9.23624 1.33096 9.73152 0.391766 10.6192 0.0925475C10.7968 0.0328404 10.9805 0.00168883 11.1653 4.92746e-05C11.44 -0.00200017 11.7057 0.0598928 11.956 0.183543C12.1622 0.285507 12.3462 0.427229 12.4974 0.600557C12.6486 0.773885 12.7641 0.975399 12.8371 1.19351L17.5901 15.3116L17.6039 15.3569C17.8709 16.2918 17.3767 17.2315 16.489 17.5307C16.3137 17.5893 16.1302 17.62 15.9454 17.6217Z" fill="#E8A723"/>
<path d="M8.87479 19.9998C8.5054 20.0033 8.14438 19.8898 7.84347 19.6755C7.54256 19.4612 7.3172 19.1572 7.1997 18.807L2.44755 4.68825C2.37392 4.47043 2.34397 4.24023 2.35942 4.01082C2.37487 3.78141 2.43542 3.55731 2.5376 3.35133C2.63977 3.14536 2.78157 2.96155 2.95488 2.81045C3.12818 2.65935 3.32959 2.54391 3.54756 2.47075C3.72317 2.41205 3.90689 2.38125 4.09204 2.37948C4.46127 2.37583 4.82218 2.48919 5.12303 2.70329C5.42387 2.91739 5.6492 3.22125 5.76672 3.5713L10.519 17.6906C10.5927 17.9085 10.6226 18.1388 10.6071 18.3683C10.5916 18.5979 10.531 18.8221 10.4287 19.0281C10.3264 19.2341 10.1844 19.4179 10.0109 19.569C9.83748 19.7201 9.6359 19.8355 9.41776 19.9085C9.2425 19.9672 9.05908 19.998 8.87425 19.9996H8.87479V19.9998Z" fill="#3EB890"/>
<path d="M13.599 14.4421L16.9134 13.3089L15.8299 10.0913L12.5117 11.2126L13.599 14.4421Z" fill="#CC2027"/>
<path d="M6.54418 16.8543L9.85829 15.7212L8.76661 12.479L5.44922 13.6007L6.54418 16.8543Z" fill="#361238"/>
<path d="M11.241 7.43334L14.5556 6.30164L13.4849 3.12158L10.1641 4.23416L11.241 7.43334Z" fill="#65863A"/>
<path d="M4.18379 9.84208L7.49845 8.71038L6.41456 5.48975L3.09375 6.60218L4.18379 9.84208Z" fill="#1A937D"/>
</svg>
