<svg width="20" height="20" viewBox="0 0 20 20" fill="none" xmlns="http://www.w3.org/2000/svg">
<path d="M10 0C7.35522 0 4.86283 0.857443 2.98182 2.41436C1.05891 4.00603 0 6.13517 0 8.40977C0 10.5815 0.972155 12.6309 2.74127 14.1984L6.34744 19.6941C6.47312 19.8856 6.68373 20 6.90833 20L6.92401 19.9999C7.15456 19.9942 7.36652 19.8688 7.48615 19.6669L9.18942 16.792C9.45943 16.8103 9.73074 16.8195 10 16.8195C12.6448 16.8195 15.1372 15.962 17.0182 14.405C18.941 12.8134 20 10.6842 20 8.40966C20 6.13523 18.941 4.00609 17.0182 2.41442C15.1372 0.857443 12.6448 0 10 0Z" fill="#54B9B5"/>
</svg>
