<svg width="19" height="19" viewBox="0 0 19 19" fill="none" xmlns="http://www.w3.org/2000/svg">
<path d="M11.1803 9.5002L18.6519 2.02837C19.116 1.56455 19.116 0.811983 18.6519 0.348162C18.1877 -0.116054 17.4359 -0.116054 16.9717 0.348162L9.5002 7.81999L2.02829 0.348162C1.56409 -0.116054 0.812345 -0.116054 0.348148 0.348162C-0.116049 0.811983 -0.116049 1.56455 0.348148 2.02837L7.82006 9.5002L0.348148 16.972C-0.116049 17.4358 -0.116049 18.1884 0.348148 18.6522C0.580246 18.8839 0.88443 19 1.18822 19C1.49201 19 1.79619 18.8839 2.02829 18.6518L9.5002 11.18L16.9717 18.6518C17.2038 18.8839 17.508 19 17.8118 19C18.1156 19 18.4198 18.8839 18.6519 18.6518C19.116 18.188 19.116 17.4354 18.6519 16.9716L11.1803 9.5002Z" fill="#222222"/>
</svg>
