<svg width="28" height="22" fill="none" xmlns="http://www.w3.org/2000/svg"><path fill-rule="evenodd" clip-rule="evenodd" d="M5 3.735A3.265 3.265 0 0 0 1.737 7v9.222a.735.735 0 0 1-1.47 0V7A4.735 4.735 0 0 1 5 2.265h12a.735.735 0 1 1 0 1.47H5zm16 2.308c.407 0 .736.329.736.735V16A4.735 4.735 0 0 1 17 20.735H5a.735.735 0 1 1 0-1.47h12A3.265 3.265 0 0 0 20.266 16V6.778c0-.406.329-.735.735-.735z" fill="#fff"/><path fill-rule="evenodd" clip-rule="evenodd" d="M26.266 6.57a.266.266 0 0 0-.379-.24L21.31 8.464l-.62-1.33L25.267 5a1.734 1.734 0 0 1 2.467 1.571v10.86a1.734 1.734 0 0 1-2.467 1.571l-4.578-2.136.621-1.33 4.577 2.136a.266.266 0 0 0 .379-.241V6.57zM1.437 19.472a.735.735 0 0 1 .091-1.035l18.5-15.5a.735.735 0 0 1 .945 1.126l-18.5 15.5a.735.735 0 0 1-1.036-.091z" fill="#fff"/></svg>