<svg width="22" height="31" viewBox="0 0 22 31" fill="none" xmlns="http://www.w3.org/2000/svg">
<path fill-rule="evenodd" clip-rule="evenodd" d="M1 0C0.447266 0 0 0.447754 0 1V29.833C0 30.2847 0.279297 30.626 0.638672 30.7661C0.962891 30.8921 1.35156 30.8545 1.6582 30.5864L11 22.4248L20.3418 30.5864C20.9883 31.1514 22 30.6919 22 29.833V1C22 0.447754 21.5527 0 21 0H18.334H3.66602H1Z" fill="#3867D4"/>
<path fill-rule="evenodd" clip-rule="evenodd" d="M13.6336 9.48748C13.3575 9.48748 13.1336 9.26363 13.1336 8.98748V3.66354C13.1336 3.17311 12.501 2.97583 12.2222 3.37932L7.14418 10.7291C6.91504 11.0608 7.15243 11.5134 7.55555 11.5134H9.36799C9.64413 11.5134 9.86799 11.7372 9.86799 12.0134V17.3373C9.86799 17.8277 10.5006 18.025 10.7794 17.6215L15.8574 10.2717C16.0866 9.94005 15.8492 9.48748 15.4461 9.48748H13.6336Z" fill="white"/>
</svg>
