<svg width="27" height="26" viewBox="0 0 27 26" fill="none" xmlns="http://www.w3.org/2000/svg">
<path fill-rule="evenodd" clip-rule="evenodd" d="M22.3811 1.86422C23.3518 1.86422 24.1389 2.65133 24.1389 3.62203L24.1389 6.25924C24.1389 6.74459 23.7463 7.13815 23.26 7.13815C22.7737 7.13815 22.3811 6.74459 22.3811 6.25924V5.37985C22.3811 5.22213 22.3596 5.06979 22.3206 4.92428L16.0588 11.1884C15.7151 11.5317 15.1585 11.5317 14.8147 11.1884C14.471 10.8447 14.471 10.2885 14.8147 9.94528L21.0784 3.6816C20.9338 3.64303 20.7815 3.62203 20.6233 3.62203H19.7444C19.2581 3.62203 18.8655 3.22848 18.8655 2.74313C18.8655 2.48434 18.9768 2.25143 19.1545 2.0903C19.3108 1.94967 19.5178 1.86422 19.7444 1.86422L22.3811 1.86422Z" fill="white"/>
<path fill-rule="evenodd" clip-rule="evenodd" d="M4.92589 22.3178C5.07043 22.3568 5.22277 22.3774 5.38097 22.3774L6.25988 22.3774C6.74621 22.3774 7.13878 22.7709 7.13878 23.2563C7.13878 23.5795 6.96496 23.8617 6.70519 24.0146C6.57433 24.0912 6.42199 24.1352 6.25988 24.1352L3.62316 24.1352C2.65246 24.1352 1.86535 23.3481 1.86535 22.3774L1.86535 19.7401C1.86535 19.2548 2.25793 18.8612 2.74425 18.8612C3.23058 18.8612 3.62316 19.2548 3.62316 19.7401L3.62316 20.6195C3.62316 20.7768 3.64269 20.9296 3.68175 21.0746L9.94543 14.8105C10.2892 14.4672 10.8458 14.4672 11.1896 14.8105C11.5333 15.1542 11.5333 15.7104 11.1896 16.0536L4.92589 22.3178Z" fill="white"/>
</svg>
