<svg width="110" height="21" viewBox="0 0 110 21" fill="none" xmlns="http://www.w3.org/2000/svg">
<path d="M12.73 9.99411C12.73 9.58705 12.3802 9.25708 11.9487 9.25708H3.90186C3.47037 9.25708 3.12061 9.58705 3.12061 9.99411C3.12061 10.4012 3.47037 10.7311 3.90186 10.7311H11.9487C12.3802 10.7311 12.73 10.4012 12.73 9.99411Z" fill="white"/>
<path d="M3.90186 12.2052C3.47037 12.2052 3.12061 12.5352 3.12061 12.9422C3.12061 13.3493 3.47037 13.6793 3.90186 13.6793H8.789C9.22049 13.6793 9.57025 13.3493 9.57025 12.9422C9.57025 12.5352 9.22049 12.2052 8.789 12.2052H3.90186Z" fill="white"/>
<path d="M5.73785 19.2807H3.125C2.26344 19.2807 1.5625 18.6194 1.5625 17.8067V4.83495C1.5625 4.02216 2.26344 3.3609 3.125 3.3609H12.73C13.5916 3.3609 14.2925 4.02216 14.2925 4.83495V9.36768C14.2925 9.77474 14.6423 10.1047 15.0738 10.1047C15.5053 10.1047 15.855 9.77474 15.855 9.36768V4.83495C15.855 3.20936 14.4532 1.88684 12.73 1.88684H3.125C1.40188 1.88684 0 3.20936 0 4.83495V17.8067C0 19.4322 1.40188 20.7548 3.125 20.7548H5.73785C6.16934 20.7548 6.5191 20.4248 6.5191 20.0177C6.5191 19.6107 6.16934 19.2807 5.73785 19.2807Z" fill="white"/>
<path fill-rule="evenodd" clip-rule="evenodd" d="M17.2389 12.5579C16.3251 11.6958 14.8382 11.6958 13.925 12.5573L9.63577 16.5948C9.58426 16.6433 9.54031 16.6982 9.50516 16.7577C9.47818 16.8034 9.45633 16.8519 9.44009 16.9023L8.50589 19.8034C8.42312 20.0606 8.49527 20.3399 8.69424 20.5323C8.84329 20.6765 9.0458 20.7547 9.25357 20.7547C9.32303 20.7547 9.39322 20.7459 9.46206 20.7279L12.6154 19.9039C12.7451 19.87 12.8634 19.805 12.9588 19.7152L17.2389 15.6849C18.1527 14.8228 18.1527 13.4201 17.2389 12.5579ZM12.0003 18.5351L10.4138 18.9496L10.8781 17.5077L13.7722 14.7834L14.8772 15.826L12.0003 18.5351ZM15.9833 14.7847L16.1347 14.6421C16.4387 14.3552 16.4387 13.8877 16.1342 13.6003C15.8295 13.3129 15.3339 13.3129 15.0293 13.6003L14.8784 13.7423L15.9833 14.7847Z" fill="white"/>
<path d="M11.9487 6.30896H3.90186C3.47037 6.30896 3.12061 6.63893 3.12061 7.04599C3.12061 7.45305 3.47037 7.78302 3.90186 7.78302H11.9487C12.3802 7.78302 12.73 7.45305 12.73 7.04599C12.73 6.63893 12.3802 6.30896 11.9487 6.30896Z" fill="white"/>
<path d="M30.9678 17.036C30.4518 17.036 30.1938 16.934 30.1938 16.73C30.1938 16.67 30.2118 16.586 30.2478 16.478L34.5138 4.652C34.5858 4.46 34.8258 4.364 35.2338 4.364H35.7558C36.1878 4.364 36.4278 4.46 36.4758 4.652L40.7418 16.496C40.7778 16.58 40.7958 16.658 40.7958 16.73C40.7958 16.934 40.5378 17.036 40.0218 17.036H39.8778C39.4578 17.036 39.2178 16.94 39.1578 16.748L38.0958 13.796H32.8038L31.7778 16.748C31.7178 16.94 31.4778 17.036 31.0578 17.036H30.9678ZM37.6098 12.428L35.7198 7.064C35.6598 6.872 35.5878 6.524 35.5038 6.02H35.4678C35.3718 6.5 35.2818 6.848 35.1978 7.064L33.3078 12.428H37.6098ZM45.4448 17.108C44.7368 17.108 44.1188 16.904 43.5908 16.496C43.0628 16.088 42.6548 15.518 42.3668 14.786C42.0908 14.054 41.9528 13.226 41.9528 12.302C41.9528 11.282 42.1028 10.412 42.4028 9.692C42.7148 8.96 43.1468 8.408 43.6988 8.036C44.2508 7.664 44.8868 7.478 45.6068 7.478C46.1348 7.478 46.5968 7.556 46.9928 7.712C47.4008 7.868 47.7968 8.096 48.1808 8.396V3.86C48.1808 3.596 48.4208 3.464 48.9008 3.464H48.9728C49.4528 3.464 49.6928 3.596 49.6928 3.86V14.336C49.6928 15.128 49.7288 15.698 49.8008 16.046C49.8728 16.382 49.9088 16.568 49.9088 16.604C49.9088 16.748 49.7948 16.856 49.5668 16.928C49.3388 16.988 49.1288 17.018 48.9368 17.018C48.7688 17.018 48.6428 16.928 48.5588 16.748C48.4868 16.556 48.4268 16.358 48.3788 16.154C48.3428 15.95 48.3188 15.818 48.3068 15.758C47.4428 16.658 46.4888 17.108 45.4448 17.108ZM45.7508 15.794C46.1588 15.794 46.5728 15.686 46.9928 15.47C47.4248 15.254 47.8208 14.948 48.1808 14.552V9.62C47.5328 9.08 46.7948 8.81 45.9668 8.81C45.1628 8.81 44.5568 9.098 44.1488 9.674C43.7408 10.25 43.5368 11.078 43.5368 12.158C43.5368 13.322 43.7288 14.222 44.1128 14.858C44.4968 15.482 45.0428 15.794 45.7508 15.794ZM55.6226 17.108C54.9146 17.108 54.2966 16.904 53.7686 16.496C53.2406 16.088 52.8326 15.518 52.5446 14.786C52.2686 14.054 52.1306 13.226 52.1306 12.302C52.1306 11.282 52.2806 10.412 52.5806 9.692C52.8926 8.96 53.3246 8.408 53.8766 8.036C54.4286 7.664 55.0646 7.478 55.7846 7.478C56.3126 7.478 56.7746 7.556 57.1706 7.712C57.5786 7.868 57.9746 8.096 58.3586 8.396V3.86C58.3586 3.596 58.5986 3.464 59.0786 3.464H59.1506C59.6306 3.464 59.8706 3.596 59.8706 3.86V14.336C59.8706 15.128 59.9066 15.698 59.9786 16.046C60.0506 16.382 60.0866 16.568 60.0866 16.604C60.0866 16.748 59.9726 16.856 59.7446 16.928C59.5166 16.988 59.3066 17.018 59.1146 17.018C58.9466 17.018 58.8206 16.928 58.7366 16.748C58.6646 16.556 58.6046 16.358 58.5566 16.154C58.5206 15.95 58.4966 15.818 58.4846 15.758C57.6206 16.658 56.6666 17.108 55.6226 17.108ZM55.9286 15.794C56.3366 15.794 56.7506 15.686 57.1706 15.47C57.6026 15.254 57.9986 14.948 58.3586 14.552V9.62C57.7106 9.08 56.9726 8.81 56.1446 8.81C55.3406 8.81 54.7346 9.098 54.3266 9.674C53.9186 10.25 53.7146 11.078 53.7146 12.158C53.7146 13.322 53.9066 14.222 54.2906 14.858C54.6746 15.482 55.2206 15.794 55.9286 15.794ZM67.9645 17.036C67.4845 17.036 67.2445 16.904 67.2445 16.64V10.322C67.2445 9.53 67.2085 8.966 67.1365 8.63C67.0645 8.282 67.0285 8.09 67.0285 8.054C67.0285 7.91 67.1425 7.808 67.3705 7.748C67.5985 7.676 67.8085 7.64 68.0005 7.64C68.1685 7.64 68.2885 7.73 68.3605 7.91C68.4445 8.078 68.5045 8.258 68.5405 8.45C68.5885 8.642 68.6185 8.768 68.6305 8.828C69.0145 8.408 69.4525 8.078 69.9445 7.838C70.4365 7.598 70.9345 7.478 71.4385 7.478C72.3505 7.478 73.0645 7.736 73.5805 8.252C74.1085 8.768 74.3725 9.482 74.3725 10.394V16.64C74.3725 16.904 74.1325 17.036 73.6525 17.036H73.5805C73.1005 17.036 72.8605 16.904 72.8605 16.64V10.538C72.8605 9.986 72.6985 9.56 72.3745 9.26C72.0625 8.948 71.6125 8.792 71.0245 8.792C70.6165 8.792 70.2085 8.906 69.8005 9.134C69.4045 9.362 69.0565 9.668 68.7565 10.052V16.64C68.7565 16.904 68.5165 17.036 68.0365 17.036H67.9645ZM80.8821 17.108C79.5261 17.108 78.4881 16.7 77.7681 15.884C77.0601 15.068 76.7061 13.886 76.7061 12.338C76.7061 10.778 77.0661 9.578 77.7861 8.738C78.5061 7.898 79.5381 7.478 80.8821 7.478C82.2021 7.478 83.2101 7.898 83.9061 8.738C84.6141 9.566 84.9681 10.766 84.9681 12.338C84.9681 13.898 84.6201 15.086 83.9241 15.902C83.2401 16.706 82.2261 17.108 80.8821 17.108ZM80.8281 15.812C81.7041 15.812 82.3521 15.53 82.7721 14.966C83.1921 14.39 83.4021 13.502 83.4021 12.302C83.4021 11.102 83.1921 10.214 82.7721 9.638C82.3521 9.062 81.7041 8.774 80.8281 8.774C79.9521 8.774 79.3101 9.062 78.9021 9.638C78.4941 10.202 78.2901 11.09 78.2901 12.302C78.2901 13.502 78.4941 14.39 78.9021 14.966C79.3101 15.53 79.9521 15.812 80.8281 15.812ZM90.2121 17.108C89.6121 17.108 89.0721 16.928 88.5921 16.568C88.1241 16.196 87.8901 15.548 87.8901 14.624V8.882H86.9901C86.8701 8.882 86.7801 8.84 86.7201 8.756C86.6601 8.672 86.6301 8.534 86.6301 8.342V8.126C86.6301 7.934 86.6601 7.796 86.7201 7.712C86.7801 7.628 86.8701 7.586 86.9901 7.586H87.8901L88.1061 5.696C88.1421 5.432 88.3341 5.3 88.6821 5.3H88.8621C89.2221 5.3 89.4021 5.432 89.4021 5.696V7.586H90.9141C91.0461 7.586 91.1361 7.628 91.1841 7.712C91.2441 7.796 91.2741 7.934 91.2741 8.126V8.342C91.2741 8.534 91.2441 8.672 91.1841 8.756C91.1361 8.84 91.0461 8.882 90.9141 8.882H89.4021V14.48C89.4021 14.984 89.4861 15.332 89.6541 15.524C89.8341 15.716 90.0741 15.812 90.3741 15.812C90.6021 15.812 90.7701 15.8 90.8781 15.776C90.9981 15.74 91.0881 15.722 91.1481 15.722C91.2561 15.722 91.3461 15.836 91.4181 16.064C91.4901 16.28 91.5261 16.448 91.5261 16.568C91.5261 16.928 91.0881 17.108 90.2121 17.108ZM97.5165 17.108C96.0165 17.108 94.9065 16.718 94.1865 15.938C93.4665 15.158 93.1065 13.964 93.1065 12.356C93.1065 10.76 93.4605 9.548 94.1685 8.72C94.8765 7.892 95.9205 7.478 97.3005 7.478C98.5245 7.478 99.4485 7.88 100.072 8.684C100.696 9.476 101.008 10.64 101.008 12.176C101.008 12.284 100.936 12.434 100.792 12.626C100.648 12.818 100.522 12.914 100.414 12.914H94.7265C94.7985 13.91 95.0565 14.642 95.5005 15.11C95.9445 15.578 96.6105 15.812 97.4985 15.812C98.0025 15.812 98.4345 15.752 98.7945 15.632C99.1665 15.5 99.4725 15.374 99.7125 15.254C99.9525 15.122 100.09 15.056 100.126 15.056C100.246 15.056 100.378 15.176 100.522 15.416C100.678 15.656 100.756 15.836 100.756 15.956C100.756 16.1 100.606 16.268 100.306 16.46C100.006 16.64 99.6045 16.796 99.1005 16.928C98.6085 17.048 98.0805 17.108 97.5165 17.108ZM99.4065 11.618C99.4065 9.722 98.6865 8.774 97.2465 8.774C95.6985 8.774 94.8585 9.722 94.7265 11.618H99.4065Z" fill="white"/>
</svg>
