<svg width="36" height="20" viewBox="0 0 36 20" fill="none" xmlns="http://www.w3.org/2000/svg">
<path d="M18.409 6.1864H15.3408V9.25458H18.409C19.3295 9.25458 19.9431 8.64095 19.9431 7.72049C19.9431 6.80004 19.3295 6.1864 18.409 6.1864Z" fill="#2AD7BC"/>
<path fill-rule="evenodd" clip-rule="evenodd" d="M4.60227 0.0500488H30.6818C33.2898 0.0500488 35.2841 2.04433 35.2841 4.65232V15.391C35.2841 17.999 33.2898 19.9932 30.6818 19.9932H4.60227C1.99428 19.9932 0 17.999 0 15.391V4.65232C0 2.04433 1.99428 0.0500488 4.60227 0.0500488ZM10.7386 15.391H12.2727V4.65232H11.5056H10.7386L8.43754 9.25459L6.13636 4.65232H5.36928H4.60227V15.391H6.13636V7.7205L7.67053 10.7887H8.43754H9.20455L10.7386 7.7205V15.391ZM18.4091 10.7887H15.3409V15.391H13.8068V7.7205V4.65232H18.4091C20.0965 4.65232 21.4773 6.03296 21.4773 7.7205C21.4773 9.40796 20.0965 10.7887 18.4091 10.7887ZM29.1477 12.3228H30.6818V10.7887H29.1477V4.65232H27.6136L23.0114 10.7887V12.3228H27.6136V15.391H29.1477V12.3228Z" fill="#2AD7BC"/>
<path d="M27.6139 10.7887V6.95349L24.8525 10.7887H27.6139Z" fill="#2AD7BC"/>
</svg>
