<svg width="78" height="20" viewBox="0 0 78 20" fill="none" xmlns="http://www.w3.org/2000/svg">
<path fill-rule="evenodd" clip-rule="evenodd" d="M12.19 1.26437C13.979 -0.510627 16.681 -0.406627 18.6135 1.51087C19.5075 2.39862 20 3.57887 20 4.83437C20 6.09037 19.5075 7.27062 18.614 8.15787L14.6398 12.1004C13.4123 13.3191 12.1213 13.9346 10.899 13.9346C9.90077 13.9346 8.94852 13.5241 8.11427 12.6961C7.62852 12.2141 7.62552 11.4294 8.10802 10.9439C8.59052 10.4584 9.37477 10.4554 9.86052 10.9376L9.86058 10.9377C10.2244 11.2987 11.0769 12.1448 12.894 10.3419L16.8683 6.39937C17.2895 5.98112 17.5215 5.42537 17.5215 4.83462C17.5215 4.24412 17.2898 3.68837 16.8678 3.27012C16.0763 2.48487 14.8628 2.10337 13.936 3.02362L12.675 4.27512C12.1893 4.75737 11.4048 4.75462 10.9223 4.26887C10.4398 3.78312 10.4428 2.99887 10.9285 2.51662L12.19 1.26437ZM6.3125 16.8726L7.3245 15.8676C7.81025 15.3854 8.5955 15.3881 9.07725 15.8734C9.55975 16.3591 9.557 17.1436 9.0715 17.6256L8.05875 18.6309C7.1385 19.5439 5.93025 19.9999 4.72175 19.9999C3.5135 19.9999 2.30575 19.5439 1.386 18.6314C0.492 17.7441 0 16.5644 0 15.3084C0 14.0524 0.492 12.8724 1.38575 11.9851L5.111 8.28912C7.427 5.99112 10.0863 5.66112 11.8855 7.44662C12.3713 7.92862 12.3743 8.71337 11.8918 9.19887C11.4095 9.68437 10.625 9.68762 10.1392 9.20512C9.08075 8.15537 7.6285 9.28262 6.8565 10.0481L3.1315 13.7439C2.7105 14.1621 2.47875 14.7179 2.47875 15.3084C2.47875 15.8989 2.71025 16.4544 3.13175 16.8726C4.0085 17.7429 5.43525 17.7421 6.3125 16.8726Z" fill="white"/>
<path d="M35.472 13.0979C34.884 13.0979 34.3473 13.0326 33.862 12.9019C33.3767 12.7619 33.008 12.5986 32.756 12.4119C32.56 12.2719 32.462 12.1366 32.462 12.0059C32.462 11.8659 32.5367 11.6839 32.686 11.4599C32.8353 11.2266 32.9567 11.1099 33.05 11.1099C33.1153 11.1099 33.2227 11.1613 33.372 11.2639C33.68 11.4226 33.9833 11.5533 34.282 11.6559C34.59 11.7586 34.9493 11.8099 35.36 11.8099C35.8453 11.8099 36.2467 11.6839 36.564 11.4319C36.8907 11.1706 37.054 10.8113 37.054 10.3539C37.054 10.0553 36.9747 9.80794 36.816 9.61194C36.6573 9.40661 36.4567 9.24327 36.214 9.12194C35.9807 8.99127 35.654 8.83727 35.234 8.65994L34.926 8.53394C34.4407 8.33794 34.044 8.14194 33.736 7.94594C33.428 7.74994 33.1667 7.47927 32.952 7.13394C32.7467 6.77927 32.644 6.32194 32.644 5.76194C32.644 5.22061 32.7793 4.74927 33.05 4.34794C33.33 3.94661 33.708 3.63861 34.184 3.42394C34.66 3.20927 35.2013 3.10194 35.808 3.10194C36.172 3.10194 36.5453 3.14861 36.928 3.24194C37.32 3.33527 37.628 3.45661 37.852 3.60594C38.048 3.72727 38.146 3.85794 38.146 3.99794C38.146 4.12861 38.076 4.31061 37.936 4.54394C37.8053 4.76794 37.6933 4.87994 37.6 4.87994C37.5533 4.87994 37.418 4.82394 37.194 4.71194C36.7647 4.50661 36.3167 4.40394 35.85 4.40394C35.3273 4.40394 34.9167 4.52527 34.618 4.76794C34.3287 5.01061 34.184 5.33727 34.184 5.74794C34.184 6.04661 34.2587 6.28927 34.408 6.47594C34.5667 6.66261 34.7533 6.80727 34.968 6.90994C35.1827 7.01261 35.5187 7.15261 35.976 7.32994C36.5267 7.54461 36.9747 7.75461 37.32 7.95994C37.6747 8.15594 37.9733 8.44527 38.216 8.82794C38.468 9.20127 38.594 9.68194 38.594 10.2699C38.594 11.1753 38.3047 11.8753 37.726 12.3699C37.1473 12.8553 36.396 13.0979 35.472 13.0979ZM40.82 13.0279C40.4 13.0279 40.19 12.9113 40.19 12.6779V2.80794C40.19 2.57461 40.4 2.45794 40.82 2.45794H40.974C41.4033 2.45794 41.618 2.57461 41.618 2.80794V6.54594C41.8887 6.26594 42.2013 6.03727 42.556 5.85994C42.92 5.67327 43.3073 5.57994 43.718 5.57994C44.334 5.57994 44.852 5.75261 45.272 6.09794C45.692 6.44327 45.902 7.02661 45.902 7.84794V12.6779C45.902 12.9113 45.6873 13.0279 45.258 13.0279H45.118C44.6887 13.0279 44.474 12.9113 44.474 12.6779V8.01594C44.474 7.63327 44.3667 7.33927 44.152 7.13394C43.9373 6.91927 43.62 6.81194 43.2 6.81194C42.9293 6.81194 42.6773 6.87727 42.444 7.00794C42.2107 7.12927 42.0193 7.26927 41.87 7.42794C41.73 7.57727 41.646 7.67994 41.618 7.73594V12.6779C41.618 12.9113 41.4033 13.0279 40.974 13.0279H40.82ZM49.87 13.0979C49.1607 13.0979 48.6007 12.9206 48.19 12.5659C47.7793 12.2019 47.574 11.6839 47.574 11.0119C47.574 10.0693 47.966 9.41127 48.75 9.03794C49.534 8.65527 50.6307 8.45927 52.04 8.44994V7.84794C52.04 7.52127 51.928 7.25994 51.704 7.06394C51.48 6.86794 51.1207 6.76994 50.626 6.76994C50.2433 6.76994 49.9073 6.81661 49.618 6.90994C49.338 6.99394 49.0953 7.08727 48.89 7.18994C48.694 7.28327 48.582 7.32994 48.554 7.32994C48.4513 7.32994 48.33 7.22261 48.19 7.00794C48.0593 6.78394 47.994 6.61594 47.994 6.50394C47.994 6.37327 48.1153 6.23794 48.358 6.09794C48.61 5.94861 48.9367 5.82727 49.338 5.73394C49.7487 5.63127 50.1827 5.57994 50.64 5.57994C51.564 5.57994 52.264 5.78061 52.74 6.18194C53.2253 6.57394 53.468 7.11994 53.468 7.81994V10.8159C53.468 11.4413 53.496 11.8939 53.552 12.1739C53.608 12.4539 53.636 12.6126 53.636 12.6499C53.636 12.7806 53.5193 12.8739 53.286 12.9299C53.062 12.9859 52.852 13.0139 52.656 13.0139C52.5067 13.0139 52.3993 12.9439 52.334 12.8039C52.278 12.6639 52.2313 12.5146 52.194 12.3559C52.166 12.1973 52.1473 12.0899 52.138 12.0339C51.886 12.3326 51.5687 12.5846 51.186 12.7899C50.8127 12.9953 50.374 13.0979 49.87 13.0979ZM50.108 11.8939C50.5187 11.8939 50.878 11.8099 51.186 11.6419C51.494 11.4739 51.7787 11.2453 52.04 10.9559V9.55594C51.1347 9.55594 50.4113 9.64461 49.87 9.82194C49.3287 9.98994 49.058 10.3493 49.058 10.8999C49.058 11.2173 49.1467 11.4646 49.324 11.6419C49.5107 11.8099 49.772 11.8939 50.108 11.8939ZM56.3369 13.0279C55.9076 13.0279 55.6929 12.9113 55.6929 12.6779V7.90394C55.6929 7.28794 55.6649 6.83994 55.6089 6.55994C55.5529 6.27994 55.5249 6.12127 55.5249 6.08394C55.5249 5.95327 55.6416 5.85994 55.8749 5.80394C56.1083 5.74794 56.3229 5.71994 56.5189 5.71994C56.6589 5.71994 56.7569 5.78527 56.8129 5.91594C56.8783 6.04661 56.9249 6.18661 56.9529 6.33594C56.9903 6.48527 57.0136 6.58794 57.0229 6.64394C57.4989 5.93461 58.0309 5.57994 58.6189 5.57994C58.8896 5.57994 59.0903 5.64061 59.2209 5.76194C59.3609 5.88327 59.4309 6.02794 59.4309 6.19594C59.4309 6.36394 59.3983 6.55061 59.3329 6.75594C59.2676 6.96127 59.1929 7.06394 59.1089 7.06394C59.0529 7.06394 58.9549 7.04061 58.8149 6.99394C58.6843 6.94727 58.5349 6.92394 58.3669 6.92394C58.0776 6.92394 57.8209 7.02194 57.5969 7.21794C57.3823 7.40461 57.2236 7.57727 57.1209 7.73594V12.6779C57.1209 12.9113 56.9109 13.0279 56.4909 13.0279H56.3369ZM63.8859 13.0979C61.5525 13.0979 60.3859 11.8613 60.3859 9.38794C60.3859 8.12794 60.6705 7.18061 61.2399 6.54594C61.8092 5.90194 62.6259 5.57994 63.6899 5.57994C64.6699 5.57994 65.4025 5.89727 65.8879 6.53194C66.3732 7.16661 66.6159 8.06727 66.6159 9.23394C66.6159 9.32727 66.5459 9.45794 66.4059 9.62594C66.2752 9.79394 66.1679 9.87794 66.0839 9.87794H61.8979C61.9539 10.5873 62.1452 11.1053 62.4719 11.4319C62.7985 11.7493 63.2745 11.9079 63.8999 11.9079C64.2545 11.9079 64.5625 11.8659 64.8239 11.7819C65.0945 11.6979 65.3232 11.6093 65.5099 11.5159C65.7059 11.4133 65.8179 11.3619 65.8459 11.3619C65.9485 11.3619 66.0652 11.4693 66.1959 11.6839C66.3359 11.8986 66.4059 12.0573 66.4059 12.1599C66.4059 12.3093 66.2799 12.4586 66.0279 12.6079C65.7852 12.7479 65.4679 12.8646 65.0759 12.9579C64.6839 13.0513 64.2872 13.0979 63.8859 13.0979ZM65.1459 8.75794C65.1459 8.11394 65.0199 7.62394 64.7679 7.28794C64.5252 6.94261 64.1565 6.76994 63.6619 6.76994C62.6072 6.76994 62.0192 7.43261 61.8979 8.75794H65.1459Z" fill="white"/>
</svg>
