<svg width="21" height="21" viewBox="0 0 21 21" fill="none" xmlns="http://www.w3.org/2000/svg">
<path d="M1 13H5.42857C6.84873 13 8 14.1513 8 15.5714V20" stroke="white" stroke-width="2" stroke-linecap="round"/>
<path d="M1 13H5.42857C6.84873 13 8 14.1513 8 15.5714V20" stroke="white" stroke-width="2" stroke-linecap="round"/>
<path d="M8 1L8 5.42857C8 6.84873 6.84873 8 5.42857 8L1 8" stroke="white" stroke-width="2" stroke-linecap="round"/>
<path d="M8 1L8 5.42857C8 6.84873 6.84873 8 5.42857 8L1 8" stroke="white" stroke-width="2" stroke-linecap="round"/>
<path d="M20 8L15.5714 8C14.1513 8 13 6.84873 13 5.42857L13 1" stroke="white" stroke-width="2" stroke-linecap="round"/>
<path d="M20 8L15.5714 8C14.1513 8 13 6.84873 13 5.42857L13 1" stroke="white" stroke-width="2" stroke-linecap="round"/>
<path d="M13 20L13 15.5714C13 14.1513 14.1513 13 15.5714 13L20 13" stroke="white" stroke-width="2" stroke-linecap="round"/>
<path d="M13 20L13 15.5714C13 14.1513 14.1513 13 15.5714 13L20 13" stroke="white" stroke-width="2" stroke-linecap="round"/>
</svg>
