<svg width="22" height="18" fill="none" xmlns="http://www.w3.org/2000/svg"><path fill-rule="evenodd" clip-rule="evenodd" d="M8.513 10.24c2.501 0 4.509-2.007 4.509-4.458 0-2.45-2.008-4.457-4.509-4.457-2.501 0-4.509 2.006-4.509 4.457s2.008 4.458 4.509 4.458zm0 1.325c3.222 0 5.833-2.59 5.833-5.783C14.346 2.59 11.735 0 8.513 0S2.68 2.589 2.68 5.782c0 3.194 2.611 5.783 5.833 5.783zM.338 17A4.132 4.132 0 0 1 4.47 12.87h8.227A4.132 4.132 0 0 1 16.83 17a.662.662 0 1 1-1.324 0 2.807 2.807 0 0 0-2.808-2.807H4.47A2.807 2.807 0 0 0 1.662 17a.662.662 0 1 1-1.324 0zM19.162 8.905c.366 0 .662.296.662.662v4.458a.662.662 0 1 1-1.324 0V9.567c0-.366.296-.662.662-.662z" fill="#fff"/><path fill-rule="evenodd" clip-rule="evenodd" d="M22 11.88a.662.662 0 0 1-.662.662h-4.51a.662.662 0 0 1 0-1.325h4.51c.365 0 .662.297.662.663z" fill="#fff"/></svg>