<svg width="22" height="28" viewBox="0 0 22 28" fill="none" xmlns="http://www.w3.org/2000/svg">
<path opacity="0.6" d="M8.07831 17.9999C9.27831 19.1999 8.5 21.3333 8.5 22.5L13.5781 22.9999C13.4115 21.8333 13.5781 19 15.5781 17C17.5781 15 17.4115 12.4999 17.0781 11.4999C17.0781 9.83322 16.0781 6.39988 12.0781 5.99988C7.07812 5.49988 5.57831 10.4999 5.07831 11.4999C4.57831 12.4999 6.57831 16.4999 8.07831 17.9999Z" fill="#FFC03A"/>
<path d="M6.31744 7.14988C7.65559 5.85248 9.41332 5.18377 11.2731 5.25235C14.8396 5.39524 17.7484 8.43586 17.7597 12.0366C17.7654 13.6312 17.2097 15.1858 16.1948 16.4089C14.7319 18.1807 13.9267 20.4154 13.9267 22.7073C13.9267 22.7073 14.0798 23.759 13.337 23.759H8.66487C7.90507 23.759 8.07518 22.7073 8.07518 22.7073C8.07518 20.4669 7.25868 18.2493 5.71074 16.2946C4.75249 15.0772 4.24218 13.6141 4.24218 12.0595C4.24218 10.1905 4.9793 8.44158 6.31744 7.14988ZM6.63497 15.5516C8.31899 17.6777 9.22054 20.1011 9.25456 22.5702H12.7473C12.7814 20.0496 13.6772 17.5977 15.2876 15.6488C16.1211 14.6371 16.5803 13.3569 16.5747 12.0423C16.5633 9.07027 14.1649 6.56119 11.2221 6.44117C9.68549 6.38401 8.23394 6.93841 7.13394 8.0072C6.02827 9.07599 5.42157 10.5163 5.42157 12.0595C5.42724 13.3454 5.84116 14.5514 6.63497 15.5516Z" fill="#333333"/>
<path d="M3.2199 3.24606C3.45237 3.01173 3.8266 3.01173 4.05341 3.24606L5.49361 4.69779C5.72609 4.93212 5.72609 5.30934 5.49361 5.53796C5.26114 5.76658 4.88691 5.77229 4.66011 5.53796L3.2199 4.08623C2.98742 3.85762 2.98742 3.4804 3.2199 3.24606Z" fill="#333333"/>
<path d="M8.64004 24.5708H13.3576C13.6864 24.5708 13.9473 24.8394 13.9473 25.1652C13.9473 25.4967 13.6808 25.7596 13.3576 25.7596H8.64004C8.31118 25.7596 8.05035 25.491 8.05035 25.1652C8.05035 24.8394 8.31685 24.5708 8.64004 24.5708Z" fill="#333333"/>
<path d="M9.5316 26.811H12.463C12.7919 26.811 13.0527 27.0797 13.0527 27.4054C13.0527 27.7369 12.7862 27.9998 12.463 27.9998H9.5316C9.20273 27.9998 8.94191 27.7312 8.94191 27.4054C8.94191 27.0797 9.2084 26.811 9.5316 26.811Z" fill="#333333"/>
<path d="M11.0002 3.24066C10.6713 3.24066 10.4105 2.97203 10.4105 2.64625V0.594407C10.4105 0.262911 10.677 0 11.0002 0C11.3233 0 11.5898 0.268626 11.5898 0.594407V2.64625C11.5898 2.97775 11.329 3.24066 11.0002 3.24066Z" fill="#333333"/>
<path d="M16.5052 5.5443C16.2727 5.30997 16.2727 4.93275 16.5052 4.70413L17.9454 3.25241C18.1779 3.01808 18.5521 3.01808 18.7789 3.25241C19.0057 3.48674 19.0114 3.86396 18.7789 4.09258L17.3387 5.5443C17.1063 5.77292 16.732 5.77292 16.5052 5.5443Z" fill="#333333"/>
<path d="M0.589582 10.4937H2.62515C2.95402 10.4937 3.21484 10.7623 3.21484 11.0881C3.21484 11.4138 2.94835 11.6825 2.62515 11.6825H0.589582C0.260716 11.6825 -0.00010848 11.4138 -0.00010848 11.0881C-0.00010848 10.7623 0.266386 10.4937 0.589582 10.4937Z" fill="#333333"/>
<path d="M19.3747 10.4937H21.4103C21.7392 10.4937 22 10.7623 22 11.0881C22 11.4138 21.7335 11.6825 21.4103 11.6825H19.3747C19.0459 11.6825 18.785 11.4138 18.785 11.0881C18.785 10.7623 19.0459 10.4937 19.3747 10.4937Z" fill="#333333"/>
</svg>
