<svg width="135" height="28" viewBox="0 0 135 28" fill="none" xmlns="http://www.w3.org/2000/svg">
<path fill-rule="evenodd" clip-rule="evenodd" d="M118 20C118.552 20 119 19.5523 119 19C119 18.4477 118.552 18 118 18C117.448 18 117 18.4477 117 19C117 19.5523 117.448 20 118 20Z" fill="white"/>
<path fill-rule="evenodd" clip-rule="evenodd" d="M122 9C122.552 9 123 8.55228 123 8C123 7.44772 122.552 7 122 7C121.448 7 121 7.44772 121 8C121 8.55228 121.448 9 122 9Z" fill="white"/>
<path fill-rule="evenodd" clip-rule="evenodd" d="M41.0347 9.48925C42.256 9.48925 43.0798 10.3442 43.0691 11.6744C43.0591 12.9079 42.1664 13.7764 41.0723 13.8573L36.6896 13.8567L36.7221 9.49151L41.0347 9.48925ZM39.757 15.3382L43.4341 19.6228C43.6008 19.8543 43.8608 19.974 44.145 19.974C44.6193 19.974 45 19.6236 45 19.1785C45 18.997 44.9389 18.8157 44.8151 18.679L41.6385 15.2535C43.7026 14.7083 44.7976 13.3195 44.7976 11.6761C44.7976 9.53094 43.2327 8 41.0531 8H35.8541C35.4899 8 35.2619 8.05822 35.1249 8.20765C35.0061 8.33719 34.9923 8.44151 35.0029 8.69565C35.005 8.74715 35.0056 8.76804 35.0056 8.79544L35.0034 19.2045C35.0034 19.6496 35.3841 20 35.8585 20C36.3328 20 36.7135 19.6496 36.7135 19.2046L36.6715 15.3497L39.757 15.3382Z" fill="white"/>
<path fill-rule="evenodd" clip-rule="evenodd" d="M129.5 8C126.121 8 124 9.89605 124 13.9875C124 18.079 126.121 20 129.5 20C132.905 20 135 18.079 135 13.9875C135 9.89605 132.905 8 129.5 8ZM129.5 18.553C127.09 18.553 125.702 17.1809 125.702 13.9875C125.702 10.8441 127.09 9.44699 129.5 9.44699C131.91 9.44699 133.298 10.8441 133.298 13.9875C133.298 17.1809 131.91 18.553 129.5 18.553Z" fill="white"/>
<path fill-rule="evenodd" clip-rule="evenodd" d="M122 10.7496C122 10.328 121.781 10 121.5 10C121.219 10 121 10.328 121 10.7496V19.2504C121 19.672 121.219 20 121.5 20C121.781 20 122 19.672 122 19.2504V10.7496Z" fill="white"/>
<path fill-rule="evenodd" clip-rule="evenodd" d="M105 13.9875C105 18.1788 107.091 20 110.441 20C112.683 20 113.992 18.9771 114.37 18.6029C114.521 18.4532 114.647 18.3035 114.647 18.0291C114.647 17.6299 114.32 17.3056 113.917 17.3056C113.715 17.3056 113.615 17.3555 113.463 17.4553C112.758 17.9792 111.902 18.5281 110.441 18.5281C108.073 18.5281 106.637 16.9314 106.637 14.4615H113.992C115 14.4615 115 13.5884 115 12.8649C115 11.1684 114.219 8 110.189 8C106.914 8 105 10.1455 105 13.9875ZM113.413 13.0644H106.637C106.788 10.8441 107.997 9.44699 110.189 9.44699C112.783 9.44699 113.413 11.2682 113.413 13.0644Z" fill="white"/>
<path fill-rule="evenodd" clip-rule="evenodd" d="M93 13.9875C93 18.1788 95.0907 20 98.4408 20C100.683 20 101.992 18.9771 102.37 18.6029C102.521 18.4532 102.647 18.3035 102.647 18.0291C102.647 17.6299 102.32 17.3056 101.917 17.3056C101.715 17.3056 101.615 17.3555 101.463 17.4553C100.758 17.9792 99.9018 18.5281 98.4408 18.5281C96.0731 18.5281 94.6373 16.9314 94.6373 14.4615H101.992C103 14.4615 103 13.5884 103 12.8649C103 11.1684 102.219 8 98.1889 8C94.9144 8 93 10.1455 93 13.9875ZM101.413 13.0644H94.6373C94.7884 10.8441 95.9975 9.44699 98.1889 9.44699C100.783 9.44699 101.413 11.2682 101.413 13.0644Z" fill="white"/>
<path fill-rule="evenodd" clip-rule="evenodd" d="M81 14.1497C81 18.1308 82.8953 20 86.1122 20C88.9551 20 91 18.4221 91 15.2178V7.77681C91 7.33985 90.6509 7 90.202 7C89.7531 7 89.404 7.33985 89.404 7.77681V9.90152C88.8304 9.12471 87.6085 8.32363 86.0125 8.32363C82.7955 8.32363 81 10.1685 81 14.1497ZM89.3869 15.2178C89.3869 17.5239 88.0154 18.592 86.0952 18.592C83.8009 18.592 82.5789 17.1841 82.5789 14.1497C82.5789 11.1638 83.8258 9.73159 86.0952 9.73159C88.4393 9.73159 89.3869 11.8678 89.3869 11.8678V15.2178Z" fill="white"/>
<path fill-rule="evenodd" clip-rule="evenodd" d="M75.1706 8C73.4646 8 72.1785 8.80672 71.6798 9.76471V8.95798C71.6798 8.5042 71.3123 8.15126 70.8399 8.15126C70.3675 8.15126 70 8.5042 70 8.95798V19.1933C70 19.6471 70.3675 20 70.8399 20C71.3123 20 71.6798 19.6471 71.6798 19.1933V12.9664C71.6798 10.9496 72.5722 9.43697 75.1706 9.43697C77.7165 9.43697 78.3202 10.7983 78.3202 12.7899V19.1933C78.3202 19.6471 78.6877 20 79.1601 20C79.6325 20 80 19.6471 80 19.1933V12.4622C80 10.3193 79.2126 8 75.1706 8Z" fill="white"/>
<path fill-rule="evenodd" clip-rule="evenodd" d="M58.8602 8C58.3763 8 58 8.35368 58 8.80842V15.4021C58 17.8021 58.8602 20 63 20C67.1667 20 68 17.8021 68 15.4021V8.80842C68 8.35368 67.6237 8 67.1667 8C66.6828 8 66.2796 8.35368 66.2796 8.80842V15.4021C66.2796 17.0442 65.7151 18.4589 63 18.4589C60.2849 18.4589 59.7204 17.0442 59.7204 15.4021V8.80842C59.7204 8.35368 59.3172 8 58.8602 8Z" fill="white"/>
<path fill-rule="evenodd" clip-rule="evenodd" d="M51.5 8C48.1214 8 46 9.89605 46 13.9875C46 18.079 48.1214 20 51.5 20C54.9048 20 57 18.079 57 13.9875C57 9.89605 54.9048 8 51.5 8ZM51.5 18.553C49.0905 18.553 47.7024 17.1809 47.7024 13.9875C47.7024 10.8441 49.0905 9.44699 51.5 9.44699C53.9095 9.44699 55.2976 10.8441 55.2976 13.9875C55.2976 17.1809 53.9095 18.553 51.5 18.553Z" fill="white"/>
<path fill-rule="evenodd" clip-rule="evenodd" d="M23.5116 13.5C23.5116 7.93648 18.8054 3.42636 13 3.42636C7.19459 3.42636 2.48837 7.93648 2.48837 13.5C2.48837 19.0635 7.19459 23.5736 13 23.5736C18.8054 23.5736 23.5116 19.0635 23.5116 13.5ZM1 13.5C1 7.14873 6.37258 2 13 2C19.6274 2 25 7.14873 25 13.5C25 19.8513 19.6274 25 13 25C6.37258 25 1 19.8513 1 13.5Z" fill="white"/>
<path fill-rule="evenodd" clip-rule="evenodd" d="M12.3599 23.6587L12 24.252L13.142 25L13.5019 24.4067L22.6401 9.3413L23 8.74796L21.858 8L21.4981 8.59333L12.3599 23.6587Z" fill="white"/>
<path fill-rule="evenodd" clip-rule="evenodd" d="M23.3537 8.6688L24 8.31424L23.3025 7L22.6561 7.35456L2.64635 18.3312L2 18.6858L2.6975 20L3.34385 19.6454L23.3537 8.6688Z" fill="white"/>
<path fill-rule="evenodd" clip-rule="evenodd" d="M3.3416 7.36344L2.71222 7L2 8.28468L2.62938 8.64812L21.6584 19.6366L22.2878 20L23 18.7153L22.3706 18.3519L3.3416 7.36344Z" fill="white"/>
<path fill-rule="evenodd" clip-rule="evenodd" d="M16.1398 3C16.1398 2.94762 16.1384 2.89556 16.1356 2.84384L16.9836 3.30166L16.8587 2.86819C16.8587 2.86819 16.2517 2.65371 16.0173 2.16265C15.6425 0.913282 14.4503 0 13.0375 0C11.7697 0 10.6795 0.73541 10.1982 1.78916C9.78484 2.49308 9.20288 2.75887 9.20288 2.75887L9.04766 3.20012L9.94912 2.71339C9.93987 2.80772 9.93514 2.90333 9.93514 3C9.93514 3.17623 9.95086 3.34891 9.981 3.5168L9 3.73915C9 3.73915 9.06482 4.27059 9.04766 4.27125C9.76598 3.99635 10.1962 4.34801 10.4028 4.58474C10.4478 4.65445 10.4956 4.72224 10.5461 4.78797C11.1158 5.52574 12.0193 6 13.0375 6C14.0094 6 14.8769 5.56779 15.4458 4.89128C15.4508 4.89553 15.4563 4.88438 15.4675 4.86513C15.5231 4.79743 15.5758 4.72736 15.6253 4.65509C15.842 4.42301 16.2272 4.10856 16.9144 4.37154C16.8972 4.37088 17 3.84069 17 3.84069L16.0712 3.63017C16.1161 3.42698 16.1398 3.21616 16.1398 3Z" fill="white"/>
<path fill-rule="evenodd" clip-rule="evenodd" d="M5.31771 6.0512C5.16162 5.91278 4.98869 5.78857 4.79979 5.68169C4.75402 5.6558 4.70786 5.63123 4.66135 5.60797L5.46684 5.11778L4.98122 5.01069C4.98122 5.01069 4.62432 5.29084 4.0095 5.37117C2.73851 5.07018 1.37038 5.62615 0.694893 6.82008C0.0887399 7.89145 0.210172 9.17632 0.900926 10.104C1.31843 10.8014 1.24194 11.4128 1.24194 11.4128L1.58384 11.7739L1.5895 10.7715C1.66752 10.8259 1.7488 10.8772 1.83328 10.925C1.98728 11.0121 2.1457 11.0842 2.30683 11.1417L2.03211 12.0807C2.03211 12.0807 2.55405 12.3083 2.54643 12.3232C2.64964 11.5802 3.13609 11.3709 3.44176 11.3133C3.52416 11.3098 3.60626 11.3029 3.68785 11.2927C3.69228 11.2929 3.6946 11.2931 3.6946 11.2931L3.69436 11.2919C4.60495 11.176 5.45141 10.647 5.93818 9.78659C6.40288 8.96525 6.43996 8.01844 6.12073 7.20327L6.12686 7.2011C6.12686 7.2011 6.11974 7.19095 6.10827 7.17196C6.07571 7.09148 6.03966 7.01231 6.00019 6.93473C5.90097 6.63689 5.86011 6.13707 6.41848 5.68638C6.40969 5.70055 5.94574 5.37041 5.94574 5.37041L5.31771 6.0512Z" fill="white"/>
<path fill-rule="evenodd" clip-rule="evenodd" d="M2.3991 15.933C2.20334 16.0051 2.01216 16.0988 1.82871 16.2148C1.78425 16.2429 1.74079 16.272 1.69832 16.302L1.64694 15.3605L1.32308 15.7378C1.32308 15.7378 1.40133 16.1848 1.18159 16.7646C0.315715 17.7425 0.15919 19.2109 0.892198 20.3704C1.54996 21.4109 2.73971 21.9111 3.8837 21.7407C4.69557 21.7023 5.19828 22.0586 5.19828 22.0586L5.67809 21.9279L4.79732 21.4492C4.88217 21.4062 4.96577 21.3588 5.04781 21.3069C5.19737 21.2124 5.33577 21.1068 5.46261 20.992L6.16029 21.6778C6.16029 21.6778 6.60756 21.3254 6.61703 21.3391C6.01104 20.8971 6.05641 20.3695 6.15012 20.0729C6.18596 19.9986 6.2187 19.923 6.24826 19.8463C6.25053 19.8424 6.25177 19.8405 6.25177 19.8405L6.25062 19.8401C6.57883 18.9829 6.51254 17.9869 5.98432 17.1513C5.48006 16.3537 4.66315 15.8736 3.79389 15.7697L3.79487 15.7633C3.79487 15.7633 3.78256 15.7647 3.76041 15.7659C3.67409 15.7565 3.58729 15.7509 3.50026 15.749C3.19088 15.6957 2.73108 15.4955 2.59775 14.7905C2.60609 14.8049 2.09589 15.0578 2.09589 15.0578L2.3991 15.933Z" fill="white"/>
<path fill-rule="evenodd" clip-rule="evenodd" d="M23.1654 16.3041C23.358 16.3844 23.5451 16.486 23.7235 16.6096C23.7667 16.6395 23.809 16.6704 23.8501 16.7021L23.9409 15.7636L24.2487 16.1542C24.2487 16.1542 24.1518 16.5975 24.347 17.186C25.1712 18.1993 25.2661 19.673 24.4852 20.8008C23.7844 21.8128 22.5748 22.2627 21.4389 22.0446C20.6294 21.9722 20.1122 22.3072 20.1122 22.3072L19.6383 22.1565L20.5383 21.7151C20.4553 21.6686 20.3738 21.6177 20.294 21.5624C20.1485 21.4617 20.0147 21.3505 19.8927 21.2304L19.167 21.8864C19.167 21.8864 18.7348 21.5156 18.7248 21.5289C19.3488 21.1126 19.3255 20.5836 19.2443 20.2833C19.2116 20.2076 19.1821 20.1307 19.1558 20.0528C19.1537 20.0489 19.1525 20.0469 19.1525 20.0469L19.1537 20.0466C18.8616 19.1763 18.9696 18.184 19.5323 17.3713C20.0695 16.5954 20.9058 16.15 21.7787 16.0826L21.778 16.0761C21.778 16.0761 21.7902 16.0781 21.8123 16.0802C21.8989 16.0744 21.9859 16.0724 22.0729 16.0742C22.3843 16.0339 22.852 15.8532 23.0148 15.1543C23.0058 15.1684 23.505 15.4424 23.505 15.4424L23.1654 16.3041Z" fill="white"/>
<path fill-rule="evenodd" clip-rule="evenodd" d="M9.59988 23.3192C9.55449 23.5229 9.52969 23.7343 9.5278 23.9513C9.52734 24.0039 9.52823 24.0562 9.53044 24.1082L8.7112 23.6413L8.85297 24.118C8.85297 24.118 9.27102 24.2943 9.63935 24.7931C9.99228 26.0507 11.1418 26.9777 12.5136 26.9897C13.7445 27.0004 14.8094 26.2713 15.2859 25.2174C15.6934 24.5142 16.2652 24.2846 16.2652 24.2846L16.4153 23.8105L15.5358 24.2916C15.5456 24.1969 15.551 24.101 15.5519 24.0039C15.5534 23.827 15.5397 23.6535 15.5119 23.4847L16.4663 23.2697C16.4663 23.2697 16.4123 22.7029 16.429 22.7023C15.7292 22.9723 15.3102 22.6483 15.1117 22.4089C15.0687 22.3385 15.0229 22.27 14.9744 22.2036C14.9724 22.1996 14.9714 22.1975 14.9714 22.1975L14.9705 22.1983C14.4277 21.458 13.5546 20.9742 12.5661 20.9656C11.6225 20.9574 10.7764 21.384 10.2182 22.0584L10.2133 22.054C10.2133 22.054 10.2079 22.0652 10.1969 22.0844C10.1422 22.1519 10.0905 22.2218 10.0418 22.294C9.82937 22.5251 9.41203 22.8032 8.74714 22.5333C8.7638 22.5342 8.69998 23.1 8.69998 23.1L9.59988 23.3192Z" fill="white"/>
<path fill-rule="evenodd" clip-rule="evenodd" d="M23 12C24.6569 12 26 10.433 26 8.5C26 6.567 24.6569 5 23 5C21.3431 5 20 6.567 20 8.5C20 10.433 21.3431 12 23 12Z" fill="white"/>
</svg>
