<svg width="20" height="19" fill="none" xmlns="http://www.w3.org/2000/svg"><path fill-rule="evenodd" clip-rule="evenodd" d="M12.086 8.3V4.5a2.086 2.086 0 1 0-4.172 0v3.8a2.086 2.086 0 0 0 4.172 0zM10 1a3.5 3.5 0 0 0-3.5 3.5v3.8a3.5 3.5 0 0 0 7 0V4.5A3.5 3.5 0 0 0 10 1z" fill="#fff"/><path fill-rule="evenodd" clip-rule="evenodd" d="M3 6.218c.39 0 .707.317.707.707 0 3.783 2.86 6.768 6.293 6.768 3.432 0 6.293-2.985 6.293-6.768a.707.707 0 0 1 1.414 0c0 4.475-3.407 8.182-7.707 8.182S2.293 11.4 2.293 6.925c0-.39.317-.707.707-.707z" fill="#fff"/><path fill-rule="evenodd" clip-rule="evenodd" d="M9.46 19v-4.6h1.415V19H9.461z" fill="#fff"/><path fill-rule="evenodd" clip-rule="evenodd" d="M6.232 18.293c0-.39.317-.707.708-.707h6.124a.707.707 0 0 1 0 1.414H6.94a.707.707 0 0 1-.708-.707zM1.464 17.503a.735.735 0 0 1 .034-1.04l16-15a.735.735 0 1 1 1.005 1.073l-16 15a.735.735 0 0 1-1.039-.033z" fill="#fff"/></svg>