<svg width="30" height="30" viewBox="0 0 30 30" fill="none" xmlns="http://www.w3.org/2000/svg">
<path d="M15 -0.000976562C6.72904 -0.000976562 0 6.72806 0 14.999C0 23.27 6.72904 29.999 15 29.999C23.271 29.999 30 23.27 30 14.999C30 6.72806 23.2711 -0.000976562 15 -0.000976562ZM15 28.0251C7.81748 28.0251 1.97411 22.1815 1.97411 14.999C1.97411 7.8165 7.81748 1.97313 15 1.97313C22.1825 1.97313 28.0259 7.8165 28.0259 14.999C28.0259 22.1815 22.1825 28.0251 15 28.0251Z" fill="#54B9B5"/>
<path d="M16.2292 14.1208V8.56368C16.9248 8.76936 17.5317 9.14674 17.9536 9.65709C18.3271 10.1086 19.0894 10.2336 19.6563 9.93632C20.2233 9.63906 20.3803 9.03208 20.0068 8.5806C19.1237 7.51291 17.7629 6.78807 16.2292 6.53261V4.97778C16.2292 4.43723 15.6789 3.99902 15 3.99902C14.3211 3.99902 13.7708 4.43723 13.7708 4.97778V6.52968C11.0502 6.9813 9 8.90513 9 11.2034C9 13.5017 11.0503 15.4258 13.7708 15.8774V21.4345C13.0752 21.2288 12.4683 20.8514 12.0464 20.3411C11.6729 19.8896 10.9106 19.7645 10.3437 20.0619C9.77669 20.3591 9.6197 20.9661 9.99321 21.4176C10.8763 22.4853 12.2371 23.2101 13.7708 23.4656V25.0203C13.7708 25.5608 14.3211 25.999 15 25.999C15.6789 25.999 16.2292 25.5608 16.2292 25.0203V23.4685C18.9498 23.0169 21 21.0931 21 18.7948C21 16.4965 18.9498 14.5724 16.2292 14.1208ZM11.4584 11.2034C11.4584 9.99351 12.4232 8.96245 13.7708 8.56438V13.8424C12.4232 13.4443 11.4584 12.4133 11.4584 11.2034ZM16.2292 21.4337V16.1556C17.5768 16.5537 18.5416 17.5848 18.5416 18.7947C18.5416 20.0045 17.577 21.0356 16.2292 21.4337Z" fill="#54B9B5"/>
</svg>
