<svg width="30" height="29" fill="none" xmlns="http://www.w3.org/2000/svg"><path d="M29.957 11.012a.884.884 0 0 0-.71-.609l-9.26-1.368-4.14-8.536A.878.878 0 0 0 15.059 0a.878.878 0 0 0-.788.499L10.13 9.034l-9.376 1.37a.881.881 0 0 0-.712.61.904.904 0 0 0 .229.92l6.811 6.643-1.58 9.378a.902.902 0 0 0 .349.874c.27.2.63.227.925.068l8.283-4.43 8.282 4.43a.867.867 0 0 0 .925-.068c.27-.2.407-.54.35-.874l-1.582-9.382 6.7-6.644a.906.906 0 0 0 .223-.917zm-8.48 6.608a.903.903 0 0 0-.253.792l1.359 8.06-7.115-3.806a.865.865 0 0 0-.818 0L7.535 26.47l1.358-8.06a.901.901 0 0 0-.257-.796l-5.847-5.702 8.05-1.176a.88.88 0 0 0 .662-.49l3.558-7.332 3.557 7.333a.881.881 0 0 0 .662.489l7.955 1.176-5.757 5.707z" fill="#fff"/></svg>