<svg width="30" height="30" fill="none" xmlns="http://www.w3.org/2000/svg"><path d="M15 0C6.729 0 0 6.729 0 15s6.729 15 15 15 15-6.729 15-15S23.271 0 15 0zm0 28.026C7.817 28.026 1.974 22.183 1.974 15S7.817 1.974 15 1.974 28.026 7.817 28.026 15 22.183 28.026 15 28.026z" fill="#fff"/><path d="M16.23 14.122V8.565c.695.205 1.302.583 1.724 1.093.373.452 1.135.577 1.702.28.567-.298.724-.905.35-1.356-.882-1.068-2.243-1.793-3.777-2.048V4.979C16.23 4.439 15.68 4 15 4s-1.23.438-1.23.979V6.53C11.05 6.982 9 8.906 9 11.204c0 2.299 2.05 4.223 4.77 4.674v5.558c-.695-.206-1.302-.584-1.724-1.094-.373-.451-1.135-.577-1.702-.28-.567.298-.724.905-.35 1.357.882 1.067 2.243 1.792 3.777 2.048v1.554c0 .54.55.979 1.229.979s1.23-.438 1.23-.979V23.47c2.72-.451 4.77-2.375 4.77-4.673 0-2.299-2.05-4.223-4.77-4.674zm-4.772-2.918c0-1.21.965-2.24 2.313-2.639v5.278c-1.348-.398-2.313-1.429-2.313-2.639zm4.771 10.23v-5.277c1.348.398 2.313 1.429 2.313 2.639 0 1.21-.965 2.24-2.313 2.639z" fill="#fff"/></svg>