<svg width="29" height="29" fill="none" xmlns="http://www.w3.org/2000/svg"><path d="M26.451 3.398h-.906v-.85A2.552 2.552 0 0 0 22.996 0a2.552 2.552 0 0 0-2.549 2.549v.85H17.05v-.85A2.552 2.552 0 0 0 14.5 0a2.552 2.552 0 0 0-2.549 2.549v.85H8.553v-.85A2.552 2.552 0 0 0 6.003 0a2.552 2.552 0 0 0-2.548 2.549v.85H2.55A2.552 2.552 0 0 0 0 5.946v20.505A2.552 2.552 0 0 0 2.549 29H26.45A2.552 2.552 0 0 0 29 26.451V5.947a2.552 2.552 0 0 0-2.549-2.549zm-4.305-.85a.85.85 0 0 1 1.7 0v3.4a.85.85 0 0 1-1.7 0v-3.4zm-8.496 0a.85.85 0 0 1 1.7 0v3.4a.85.85 0 0 1-1.7 0v-3.4zm-8.496 0a.85.85 0 0 1 1.7 0v3.4a.85.85 0 0 1-1.7 0v-3.4zm22.147 23.903a.85.85 0 0 1-.85.85H2.55a.85.85 0 0 1-.85-.85v-14.5h25.602v14.5zm0-16.199H1.699V5.947a.85.85 0 0 1 .85-.85h.906v.85a2.552 2.552 0 0 0 2.549 2.55 2.552 2.552 0 0 0 2.549-2.55v-.85h3.398v.85a2.552 2.552 0 0 0 2.549 2.55 2.552 2.552 0 0 0 2.549-2.55v-.85h3.398v.85a2.552 2.552 0 0 0 2.55 2.55 2.552 2.552 0 0 0 2.548-2.55v-.85h.906a.85.85 0 0 1 .85.85v4.305z" fill="#54B9B5"/><path d="M7.703 13.651H4.305a.85.85 0 0 0 0 1.7h3.398a.85.85 0 0 0 0-1.7zM16.2 13.651h-3.4a.85.85 0 0 0 0 1.7h3.4a.85.85 0 0 0 0-1.7zM24.695 13.651h-3.398a.85.85 0 0 0 0 1.7h3.398a.85.85 0 0 0 0-1.7zM7.703 18.749H4.305a.85.85 0 0 0 0 1.7h3.398a.85.85 0 0 0 0-1.7zM16.2 18.749h-3.4a.85.85 0 0 0 0 1.7h3.4a.85.85 0 0 0 0-1.7zM24.695 18.749h-3.398a.85.85 0 0 0 0 1.7h3.398a.85.85 0 0 0 0-1.7zM7.703 23.903H4.305a.85.85 0 0 0 0 1.7h3.398a.85.85 0 0 0 0-1.7zM16.2 23.903h-3.4a.85.85 0 0 0 0 1.7h3.4a.85.85 0 0 0 0-1.7zM24.695 23.903h-3.398a.85.85 0 0 0 0 1.7h3.398a.85.85 0 0 0 0-1.7z" fill="#54B9B5"/></svg>