<svg width="18" height="18" fill="none" xmlns="http://www.w3.org/2000/svg"><circle cx="9" cy="9" r="9" fill="#54B9B5"/><path d="M9.82 8.441V4.905c.463.13.868.37 1.15.696.248.287.756.366 1.134.177.378-.189.483-.575.234-.862-.589-.68-1.496-1.141-2.519-1.304v-.99C9.82 2.28 9.453 2 9 2c-.453 0-.82.279-.82.623v.987C6.368 3.898 5 5.122 5 6.585c0 1.462 1.367 2.687 3.18 2.974v3.536c-.463-.13-.868-.37-1.15-.696-.248-.287-.756-.366-1.134-.177-.378.189-.483.575-.234.863.589.679 1.496 1.14 2.519 1.303v.99c0 .343.366.622.819.622.453 0 .82-.279.82-.623v-.987c1.813-.288 3.18-1.512 3.18-2.975 0-1.462-1.367-2.686-3.18-2.974zM6.638 6.585c0-.77.643-1.426 1.542-1.68v3.359c-.899-.253-1.542-.91-1.542-1.68zm3.18 6.51V9.736c.899.253 1.542.91 1.542 1.68 0 .77-.643 1.425-1.542 1.679z" fill="#fff"/></svg>