<svg width="18" height="18" fill="none" xmlns="http://www.w3.org/2000/svg"><circle cx="9" cy="9" r="9" fill="#54B9B5"/><path d="M3 5.09a1 1 0 0 1 1-1h10a1 1 0 0 1 1 1V13a1 1 0 0 1-1 1H4a1 1 0 0 1-1-1V5.09z" fill="#fff"/><path d="M4 7.09h10V12a1 1 0 0 1-1 1H5a1 1 0 0 1-1-1V7.09z" fill="#54B9B5"/><rect x="4.932" y="2.75" width="1.591" height="2.5" rx=".795" fill="#fff" stroke="#54B9B5" stroke-width=".5"/><rect x="11.477" y="2.75" width="1.591" height="2.5" rx=".795" fill="#fff" stroke="#54B9B5" stroke-width=".5"/></svg>