<svg width="22" height="16" viewBox="0 0 22 16" fill="none" xmlns="http://www.w3.org/2000/svg">
<path d="M10.5901 5.50504e-08C11.0296 5.50504e-08 11.451 0.178106 11.7618 0.495136C12.0725 0.812167 12.2471 1.24215 12.2471 1.6905V14.3096C12.2471 14.6181 12.1643 14.9207 12.0078 15.1847C11.8512 15.4486 11.6269 15.6638 11.3591 15.8069C11.0912 15.9501 10.7901 16.0158 10.4883 15.9968C10.1865 15.9779 9.89554 15.875 9.64693 15.6994L0.713605 9.38895C0.493423 9.23339 0.313485 9.02569 0.189203 8.78364C0.0649215 8.5416 0 8.27243 0 7.99918C0 7.72594 0.0649215 7.45677 0.189203 7.21472C0.313485 6.97268 0.493423 6.76498 0.713605 6.60941L9.64693 0.300286C9.92407 0.104666 10.2531 -8.76676e-05 10.5901 5.50504e-08ZM10.5404 1.6171L1.6075 7.92622C1.58856 7.9397 1.57563 7.96028 1.57154 7.98346C1.56746 8.00665 1.57255 8.03054 1.5857 8.0499C1.58919 8.05568 4.57438 10.1666 10.5404 14.3826C10.5535 14.3919 10.5688 14.3973 10.5846 14.3983C10.6005 14.3993 10.6164 14.3959 10.6305 14.3884C10.6446 14.3808 10.6564 14.3695 10.6647 14.3557C10.6729 14.3418 10.6773 14.3259 10.6773 14.3096V1.6905C10.6774 1.67423 10.673 1.65826 10.6648 1.64432C10.6566 1.63038 10.6448 1.61901 10.6307 1.61144C10.6166 1.60387 10.6007 1.6004 10.5848 1.6014C10.5688 1.60239 10.5535 1.60782 10.5404 1.6171ZM15.5672 11.3615C15.4867 11.4465 15.3905 11.5143 15.2841 11.5609C15.1777 11.6075 15.0632 11.6321 14.9474 11.6331C14.8317 11.6341 14.7168 11.6116 14.6096 11.5669C14.5025 11.5221 14.4051 11.4561 14.3232 11.3725C14.2413 11.289 14.1766 11.1896 14.1327 11.0803C14.0889 10.971 14.0668 10.8538 14.0678 10.7357C14.0688 10.6175 14.0929 10.5008 14.1386 10.3922C14.1843 10.2837 14.2507 10.1855 14.334 10.1034L20.5006 3.81208C20.5811 3.7271 20.6773 3.65932 20.7837 3.61269C20.8901 3.56606 21.0045 3.54151 21.1203 3.54049C21.2361 3.53946 21.351 3.56197 21.4581 3.60671C21.5653 3.65145 21.6627 3.71751 21.7446 3.80105C21.8265 3.88459 21.8912 3.98393 21.9351 4.09328C21.9789 4.20262 22.001 4.31978 22 4.43792C21.999 4.55606 21.9749 4.67281 21.9292 4.78136C21.8835 4.88991 21.8171 4.98809 21.7338 5.07017L15.5672 11.3615Z" fill="white"/>
<path d="M14.3346 5.07024C14.2513 4.98817 14.1849 4.88999 14.1392 4.78144C14.0935 4.67289 14.0694 4.55613 14.0684 4.438C14.0674 4.31986 14.0895 4.2027 14.1333 4.09335C14.1772 3.98401 14.2419 3.88467 14.3238 3.80113C14.4057 3.71759 14.503 3.65152 14.6102 3.60678C14.7174 3.56205 14.8322 3.53953 14.948 3.54056C15.0638 3.54159 15.1783 3.56613 15.2847 3.61276C15.3911 3.65939 15.4873 3.72718 15.5677 3.81215L21.7343 10.1035C21.8176 10.1856 21.8841 10.2837 21.9298 10.3923C21.9755 10.5008 21.9995 10.6176 22.0006 10.7357C22.0016 10.8539 21.9795 10.971 21.9356 11.0804C21.8918 11.1897 21.827 11.2891 21.7452 11.3726C21.6633 11.4561 21.5659 11.5222 21.4587 11.5669C21.3515 11.6117 21.2367 11.6342 21.1209 11.6332C21.0051 11.6321 20.8907 11.6076 20.7843 11.561C20.6779 11.5143 20.5816 11.4466 20.5012 11.3616L14.3346 5.07024Z" fill="white"/>
</svg>
