<svg width="20" height="20" viewBox="0 0 20 20" fill="none" xmlns="http://www.w3.org/2000/svg">
<path fill-rule="evenodd" clip-rule="evenodd" d="M12.7324 0H1.875C1.70312 0 1.53711 0.0229492 1.37891 0.065918C1.11719 0.137695 0.876953 0.265381 0.673828 0.435547C0.455078 0.618408 0.279297 0.850342 0.160156 1.1145C0.0566406 1.34692 0 1.60425 0 1.875V18.125C0 19.1606 0.839844 20 1.875 20H18.125C19.1602 20 20 19.1606 20 18.125V7.2666L12.7324 0ZM3.125 3.75H10.625V7.5H3.125V3.75ZM10.3125 16.875C12.2109 16.875 13.75 15.3359 13.75 13.4375C13.75 11.5391 12.2109 10 10.3125 10C8.41406 10 6.875 11.5391 6.875 13.4375C6.875 15.3359 8.41406 16.875 10.3125 16.875Z" fill="#54B9B5"/>
</svg>
